<svg xmlns="http://www.w3.org/2000/svg" width="24" height="24" viewBox="0 0 24 24">
  <path fill="#FFFFFF" fill-rule="evenodd" d="M1268.67543,28 L1247.32457,28 C1246.59295,28 1246,28.5929523 1246,29.3245658 L1246,50.6753442 C1246,51.4068679 1246.59295,52 1247.32457,52 L1258.8192,52 L1258.8192,42.7059181 L1255.69149,42.7059181 L1255.69149,39.0838195 L1258.8192,39.0838195 L1258.8192,36.4126567 C1258.8192,33.3128309 1260.71245,31.6248862 1263.47777,31.6248862 C1264.80243,31.6248862 1265.94086,31.7234418 1266.27259,31.7675041 L1266.27259,35.0070702 L1264.3547,35.0079694 C1262.85082,35.0079694 1262.55956,35.7225875 1262.55956,36.7712696 L1262.55956,39.0838195 L1266.14634,39.0838195 L1265.67936,42.7059181 L1262.55956,42.7059181 L1262.55956,52 L1268.67543,52 C1269.40696,52 1270,51.4068679 1270,50.6753442 L1270,29.3245658 C1270,28.5929523 1269.40696,28 1268.67543,28" transform="translate(-1246 -28)"/>
</svg>
