<svg xmlns="http://www.w3.org/2000/svg" width="24" height="24" viewBox="0 0 24 24">
  <g fill="#FFFFFF" fill-rule="evenodd">
    <path d="M21.7856862,16.1113071 C21.765723,16.8987087 21.7490397,17.6919685 21.5418071,18.4623622 C21.37838,19.0698583 21.1500489,19.6464252 20.7343222,20.1324094 C20.112656,20.9239055 19.2802565,21.3659213 18.3138544,21.5814803 C17.7590791,21.7052598 17.1953472,21.7520315 16.6277361,21.7748661 C14.0705219,21.8777953 11.5124878,21.8288189 8.95480053,21.8191811 C8.11489514,21.816 7.27375979,21.7965354 6.43719737,21.7060157 C5.19771248,21.5719055 4.0890134,21.1671811 3.26440368,20.1714961 C2.73968357,19.5378583 2.47060604,18.7967244 2.33584652,18.0005669 C2.15315007,16.9208504 2.17749698,15.8277795 2.15371774,14.7387402 C2.13766518,14.0046299 2.15024862,13.2698898 2.15002786,12.5354646 C2.14848252,10.6041575 2.11404363,8.67212598 2.24419869,6.74324409 C2.28453509,6.14529134 2.39210933,5.55782677 2.60744704,4.99392126 C3.04912904,3.83732283 3.85450092,3.0495748 5.01473219,2.62103937 C5.71275059,2.36324409 6.44214875,2.28012598 7.17867438,2.24604724 C9.50569671,2.13833071 11.8343275,2.18837795 14.162359,2.18280315 C14.9523721,2.18088189 15.7423222,2.19656693 16.53161,2.2375748 C17.2640042,2.27562205 17.9961461,2.31209449 18.703405,2.53379528 C20.3435417,3.0479685 21.2658544,4.18992126 21.6065535,5.84148031 C21.7462013,6.51820472 21.7723143,7.20614173 21.7878307,7.89266142 C21.8497388,10.632126 21.8551632,13.372063 21.7856862,16.1113071 M23.9342696,8.01332283 C23.9076205,6.84044094 23.8454602,5.6720315 23.4729398,4.53848819 C23.065476,3.29851969 22.3544011,2.28762205 21.3250187,1.49262992 C20.5378439,0.884692913 19.6362828,0.534866142 18.6748321,0.320913386 C17.7769608,0.121102362 16.8618702,0.0966614173 15.9485141,0.0718740157 C13.7205509,0.0114645669 11.4919254,0.0325984252 9.26367832,0.0480314961 C8.04626965,0.0564409449 6.82510802,0.0559685039 5.61921051,0.26088189 C4.49524731,0.45184252 3.45413298,0.848629921 2.55181498,1.56544882 C1.01436426,2.78683465 0.31871117,4.43574803 0.130495664,6.33807874 C0.0374286465,7.27889764 0.0221960578,8.22418898 0.0130501971,9.16862992 C0.000372141918,10.4806929 0.00358896189,11.7929134 -6.30749037e-06,13.1051024 C0.0081303548,14.4849764 0.00705808147,15.8650394 0.0960883049,17.2429921 C0.153927989,18.1388661 0.304677004,19.0147402 0.634621813,19.8555591 C0.924387911,20.5939213 1.33752852,21.2499213 1.8776389,21.8324094 C2.30818817,22.2967559 2.79506334,22.6931969 3.34630644,22.991748 C4.10311064,23.4016378 4.9179753,23.6606299 5.7735548,23.7926929 C6.11665072,23.8456693 6.46179658,23.8924724 6.80533403,23.9061732 C7.12291616,23.9188346 7.44071905,23.9432126 7.75975191,23.9468661 C10.9277204,23.9829921 14.0957204,24.0354646 17.262112,23.8786772 C18.0140279,23.8414488 18.7519096,23.7114331 19.4691343,23.4769134 C20.3382749,23.1927244 21.1182276,22.7544567 21.7920568,22.1332913 C22.779242,21.2124409 23.3740068,20.0752441 23.6680305,18.7673386 C23.8733708,17.8537638 23.9120988,16.924315 23.9333551,15.9957795 C23.9942223,13.3351496 23.9947585,10.6739528 23.9342696,8.01332283"/>
    <path d="M15.3637151 14.1485228C15.2279464 14.3799244 15.054175 14.5776252 14.8646034 14.7686488 14.6386691 14.9962709 14.407815 15.2116409 14.1364037 15.3844283 12.3627059 16.5136882 9.99884783 16.0712 8.75690302 14.3750425 8.27958371 13.723137 8.02198581 12.9937512 7.98641156 12.1865701 7.88924468 10.334948 9.13573088 8.62704252 10.9267112 8.14679055 13.2715206 7.51803465 15.608698 9.05101102 15.9447926 11.4266331 16.0807506 12.3876409 15.9269424 13.3200189 15.3637151 14.1485228M10.9403353 5.96524724C8.63680841 6.38216063 7.07904757 7.73960945 6.20788857 9.89661732 6.04282155 10.3053417 5.95754428 10.739326 5.87844836 11.1695622 5.82499238 11.4603339 5.84612247 11.7648063 5.83388594 12.0632 5.85413298 12.7357039 5.95196216 13.3943811 6.18114481 14.0301291 6.45552063 14.7912315 6.8374707 15.4885858 7.39148909 16.0856252 7.97783338 16.7175622 8.63866912 17.2455937 9.43590434 17.5949795 10.6453971 18.1250898 11.8938386 18.2843654 13.1934339 18.0265701 14.0165614 17.863263 14.7704011 17.5381606 15.4627742 17.0697827 16.1444878 16.6086173 16.6989792 16.0211528 17.1545062 15.3383496 17.6686928 14.5299402 17.9840357 13.6489953 18.0964668 12.6992315 18.2008242 11.8177197 18.109744 10.9519559 17.8347059 10.107515 16.9115417 7.27334173 14.0249188 5.40697953 10.9403353 5.96524724M18.3503148 4.19620472C17.5756289 4.20067717 16.9325803 4.85456693 16.9385724 5.63173228 16.9447222 6.4307874 17.5899469 7.0668189 18.3885698 7.06102362 19.1729693 7.05532283 19.8112242 6.40640945 19.8070612 5.6188189 19.8028668 4.8252126 19.1539837 4.19154331 18.3503148 4.19620472"/>
  </g>
</svg>
