<svg xmlns="http://www.w3.org/2000/svg" width="24" height="24" viewBox="0 0 24 24">
  <path fill="#FFFFFF" fill-rule="evenodd" d="M1308.4519,48.4506667 L1304.89247,48.4506667 L1304.89247,42.8806667 C1304.89247,41.5526667 1304.8698,39.844 1303.04308,39.844 C1301.19037,39.844 1300.90769,41.2913333 1300.90769,42.786 L1300.90769,48.4506667 L1297.35226,48.4506667 L1297.35226,36.9973333 L1300.76435,36.9973333 L1300.76435,38.5633333 L1300.81369,38.5633333 C1301.28837,37.6626667 1302.44973,36.7133333 1304.18112,36.7133333 C1307.78588,36.7133333 1308.4519,39.0846667 1308.4519,42.1693333 L1308.4519,48.4506667 L1308.4519,48.4506667 Z M1293.33881,35.4326667 C1292.19545,35.4326667 1291.27342,34.508 1291.27342,33.368 C1291.27342,32.2286667 1292.19545,31.304 1293.33881,31.304 C1294.47751,31.304 1295.40154,32.2286667 1295.40154,33.368 C1295.40154,34.508 1294.47751,35.4326667 1293.33881,35.4326667 L1293.33881,35.4326667 Z M1291.5561,48.4506667 L1295.11953,48.4506667 L1295.11953,36.9973333 L1291.5561,36.9973333 L1291.5561,48.4506667 Z M1310.22462,28 L1289.77005,28 C1288.79336,28 1288,28.7746667 1288,29.7306667 L1288,50.268 C1288,51.224 1288.79336,52 1289.77005,52 L1310.22462,52 C1311.20331,52 1312,51.224 1312,50.268 L1312,29.7306667 C1312,28.7746667 1311.20331,28 1310.22462,28 L1310.22462,28 Z" transform="translate(-1288 -28)"/>
</svg>
