<svg xmlns="http://www.w3.org/2000/svg" width="64" height="64" viewBox="0 0 64 64">
  <path fill="#CCCCCC" fill-rule="evenodd" d="M30.8046613,29.4741575 C31.5583686,29.2981996 32.923546,29.9054952 33.3445378,28.9430747 C33.050863,28.5892868 32.5709373,28.4285714 32.0676369,28.4285714 C31.5643366,28.4285714 31.0423862,28.5860779 30.6646623,28.8652574 C30.7106655,29.0679567 30.5480378,29.3720056 30.8046613,29.4741575 Z M29.6516283,31.5779599 C30.6246923,32.2407351 30.9242383,33.364092 32.2715375,33.2624575 C33.4663023,33.3347847 34.3625732,32.1904556 34.9579832,31.2744008 C33.3411189,31.0458576 31.3736886,31.3991585 29.5798319,31.1179159 L29.6516283,31.5779599 Z M62.3865546,28.9274819 C60.1443759,25.1687791 56.8078064,21.6973867 57.7354568,16.7820621 C57.83268,16.4464 57.6180837,16.1064117 57.3092867,16.0588235 C55.8549685,16.6596561 54.728338,18.1074056 54.1530587,19.5304704 C53.9160456,20.3717887 53.7762558,21.2665483 53.4425232,22.0600239 C51.7003136,21.1438878 49.8412346,20.2562537 47.7184439,20.4707823 C46.9527482,20.567231 45.8555868,20.6176185 45.7142857,21.4116031 C48.1232048,22.7125164 50.1039387,24.88325 51.5806736,27.1949667 C52.6085698,27.025736 53.8691971,27.1702819 54.9421786,27.3374768 C57.3735145,27.9876789 59.8121546,30.6638142 62.3865546,28.9274819 Z M42.3450037,14.9827673 C42.2003189,13.5991853 43.2742359,12.1381065 43.5189879,10.7492234 C40.8331637,10.9183532 38.7059621,12.5008519 36.4841093,13.7647809 C35.9698464,12.5485616 35.4540361,11.3267888 34.9436418,10.1057732 L37.874218,7.38026057 L37.9492684,7.02079683 L33.9906823,6.80496713 C33.3085232,5.63570023 33.039786,4.22712741 32.2338325,3.1512605 C31.574369,4.37025658 31.131288,5.66069104 30.4723403,6.87867739 L26.5181386,7.09501196 L26.5181386,7.38000814 L29.5193808,10.032063 C29.1521239,11.395198 28.8116891,12.8769762 27.9085053,13.9071528 C26.150108,12.8762189 24.4167275,11.7546617 22.4891445,11.038511 C22.0251731,10.8921002 21.3639043,10.6535516 20.948677,10.9650531 C21.5586227,12.2804784 22.4122887,13.6948572 22.2686356,15.1304403 C21.4621662,14.9852916 20.8282353,14.4789122 20.07051,14.2663641 C19.1644892,14.0242815 18.0892827,13.5514756 17.210084,13.8389961 C18.6760169,15.8458337 19.8721809,17.9463237 20.2861187,20.3613445 C25.1484044,18.0642097 30.8189648,16.8007855 36.7056498,17.7824951 C39.464719,18.2123875 42.0017319,19.3122355 44.4691105,20.2184678 C44.565567,17.6865708 46.2017172,15.6512083 47.3277311,13.6178653 C45.5200739,13.5242129 44.0061707,14.5286414 42.3450037,14.9827673 Z M36.0921853,24.1402277 C35.5505257,24.5329939 33.9727547,24.2506654 34.5422477,25.5723549 C35.5251482,24.7268536 36.8944417,25.319417 37.8765237,25.7394958 C38.2397221,25.543558 38.160588,25.150198 38.1848739,24.8105725 C37.869156,24.1722902 37.1160173,24.1126183 36.395078,24.1280558 C36.2924765,24.1310245 36.1928767,24.1363683 36.0921853,24.1402277 Z M34.2410685,18.8986644 C33.5607191,18.8138851 32.8546296,18.7562556 32.1543442,18.7495962 C32.0228672,18.7483156 31.8921472,18.7465227 31.7614273,18.7495962 C29.8021423,18.7895527 27.9304245,19.3000216 26.7872559,20.936698 C26.6229728,21.3987582 25.9012372,22.0475378 26.5714923,22.4617014 C28.0767905,22.3641156 29.7950763,22.1725296 30.7989449,23.4839199 C30.7989449,24.6493155 31.5401119,26.199932 30.2982724,26.7577851 C29.268916,25.7906348 28.0500408,27.1696436 26.9295842,26.3933108 C26.4034238,26.0775014 26.0700627,26.4463299 25.8545515,26.9071094 C25.5431453,29.9140862 27.0946244,33.2327743 29.8662405,34.9055653 C30.9892207,35.3166554 32.4995659,35.7077673 33.6717554,35.1245572 C36.4918236,33.791652 37.659723,30.7375471 38.1848739,27.9231807 C38.1144669,27.3881232 38.13945,26.3443898 37.3992925,26.3187767 C36.5632401,26.855371 35.3438603,26.5382809 34.4580939,26.3187767 C33.9339523,26.4906406 33.9102309,27.2685101 33.3139158,27.4157854 L32.9507769,27.1217471 C32.6393707,25.7893541 32.4475808,23.8973151 33.6677177,22.9752439 C35.0309399,22.4173908 36.632133,22.1735542 38.042041,22.611538 C38.3054997,22.1505024 37.899208,21.7880772 37.8257726,21.3757064 C37.1585458,19.8714496 35.6290215,19.2626264 34.2410685,18.8986644 Z M26.3132741,25.1501742 C27.0192319,24.0434014 28.2693053,24.9193587 29.0420168,24.9971128 L29.0420168,24.6855526 C28.6179619,23.9319357 27.74584,23.553496 26.8600312,23.5907419 C26.6554475,23.5991698 26.4482225,23.6326095 26.2479611,23.6856237 C25.951891,23.7601154 25.7453864,24.0670539 25.8371129,24.4525621 C25.7914898,24.7861436 25.8594442,25.3799023 26.3132741,25.1501742 Z M10.1242205,21.9901213 C9.90335262,19.796091 8.99683644,17.79747 7.10638383,16.3517457 C6.92306093,16.2621831 6.66930891,16.0736435 6.44119101,16.0596494 C6.30447563,16.0512529 6.17449245,16.1057029 6.0735095,16.277195 C6.93031099,21.4570709 3.50388181,25.0711272 1.07563025,29.0004338 C1.88427065,29.6495086 3.18306675,29.5525672 4.16363709,29.3617377 C6.73792553,28.3503413 9.1899987,26.5896211 12.2549607,27.1931512 C13.1617358,25.6751662 14.684248,24.2050157 15.9330705,23.0002455 C16.6961391,22.3516796 17.7442903,21.9394879 18.2857143,21.1932173 C15.7349885,19.5538647 12.5012037,21.0972937 10.1242205,21.9901213 Z M63.9286619,34.8111497 C63.9529526,35.6307554 64.0296603,36.335028 63.7097894,37.1740689 C60.3921838,38.1177023 58.2129196,34.6045222 54.9940112,35.1343889 L55.3576054,36.9556779 C58.3359076,37.0533657 60.1960679,39.9098384 63.2728115,39.7870893 C62.8358337,40.6598862 63.4679046,42.960408 61.531548,42.0408131 C59.5212964,41.5577444 58.0676865,39.7870893 55.8648987,39.7870893 C55.5992345,40.2750168 55.76748,40.950648 55.7206883,41.52808 C58.0446742,41.8924913 59.7158781,43.8572433 62.0390969,44.2198644 C61.8207358,45.0185004 61.6041646,45.9125227 60.9495927,46.3991715 C59.0600277,45.9391183 57.5831499,44.2416012 55.5713641,44.2899337 L55.2131394,45.9621338 C57.1252053,46.0112334 58.3607097,47.7033802 60.0792166,48.2112544 C60.1265197,48.91655 59.4962385,49.5469175 59.1331557,50.1765178 C57.6074406,49.7182547 56.4440414,48.4073971 54.700988,48.5045735 C54.6766973,47.8473546 55.0666278,47.1013984 54.9193491,46.3991715 C52.96177,46.9819738 51.6487909,45.1622191 50.1979936,44.0710312 C50.1560601,40.4995453 46.3968742,38.1565728 46.1984571,34.8111497 C46.1603589,34.1437018 46.2618687,33.4317573 46.5658867,32.6668772 C47.8013911,29.8096374 47.4132504,26.1003145 46.0585935,23.4366601 C45.6471848,22.7354562 44.9174394,22.1820625 44.237554,21.770086 C45.2324521,23.8780452 46.4441772,26.3685723 45.8394653,28.9598559 C45.7691499,30.9606654 44.588875,32.8824553 44.5753233,34.8111497 C44.5707209,35.4985444 44.7177438,36.1864505 45.1130439,36.8812613 C46.6881075,39.7177873 49.5216879,42.4034342 48.4562187,45.9613666 C48.1631955,47.0546003 47.2910296,47.8995229 47.0731799,49.0116805 C48.9156975,50.5378603 50.6579838,52.2578814 53.1029121,52.3545463 C53.9737995,51.7985954 53.4902857,49.3305723 55.2816649,50.468814 L57.8989297,51.7776257 C57.7081833,52.4783182 57.1216256,53.1061285 56.5908087,53.5886857 C55.5979561,53.1053613 54.6296499,52.5258835 53.3915885,52.573193 C53.0264601,52.9608754 52.7124702,53.3953559 52.7400849,53.9513068 C53.6112281,54.0947698 54.410266,54.4622498 55.1379659,54.9721698 C54.8001966,55.6997136 54.1415336,56.1556752 53.5363103,56.7131605 L51.506626,55.987151 C51.1678339,56.4722655 50.4636578,56.9819297 50.7106564,57.514098 C51.1688567,57.7102408 51.6766613,57.9754299 52.0139192,58.3150356 C51.1177183,59.2837302 49.9824451,59.9066816 48.8896169,60.5641562 C47.9486698,57.4875024 44.8473798,55.3304436 45.113811,51.7725112 L44.9693449,51.6282811 C44.2406223,52.4481424 44.4840412,53.7587443 44.5313443,54.8225694 C45.4037659,57.0509761 47.4845886,58.7722758 47.8001127,61.2162605 C47.4357514,61.8453494 46.6142125,61.9704 45.984187,62.2368677 C46.057315,57.8306883 39.3748007,54.4888454 43.6599454,50.0317762 C45.0895202,47.8494004 47.4838215,45.7667582 46.6354349,42.7619637 C45.7642918,39.8607388 42.6832014,38.0634881 42.7103048,34.8111497 L42.7151629,34.5574683 C43.4170379,31.1660144 45.5487433,27.5571923 43.8049229,23.9493931 C43.3185964,22.4981413 42.2326719,20.8492124 40.755794,20.2423718 C42.9580705,22.7635862 43.8307478,26.8767023 42.5712083,30.2686677 C41.936069,31.61814 41.0621132,33.2256412 40.9741551,34.8116612 C40.9222496,35.6399615 41.0912621,36.4639145 41.6256587,37.2446496 C43.297374,39.9584266 46.2020367,42.9386712 44.5313443,46.4748668 C42.6425464,49.3070454 39.3497429,52.1883236 41.1884251,55.9188718 C42.5203255,58.1467671 44.5804372,60.3698035 44.0245624,63.1086417 L41.845554,63.8346512 C43.298141,58.7259892 36.1783932,55.7242634 39.1589966,50.6143228 C40.9992129,47.8775304 44.2904823,45.3100294 42.4269979,41.6781919 C41.3134586,39.4277926 39.0119736,38.0959654 39.0845902,35.2837336 L39.1638547,34.8116612 C39.9137998,30.8230842 42.9452859,27.0477837 40.8253423,22.7855787 C40.2687005,21.5268895 39.1554169,20.2444176 37.9199124,19.5171295 C40.3165149,21.9889885 41.0682498,25.9338361 39.7360937,29.105109 C39.1142504,30.96578 37.7496215,32.8185235 37.4724512,34.8124284 C37.340514,35.7522258 37.4519958,36.7265464 37.9950859,37.7527796 C39.5688711,40.2453525 42.3283007,42.8890601 40.6064698,46.1114784 C38.7928454,48.7733427 35.764939,51.3628362 36.9743629,54.8243595 C38.3067746,57.8524251 41.0881938,60.7372835 39.5862581,64.4921258 L37.3377014,65 C39.1288249,61.3407997 36.4427789,57.7097293 34.8695051,54.5361549 C32.9556494,49.9826766 38.9812905,47.8026023 39.0784535,43.6396194 C39.0556969,40.9526939 36.1996157,39.4275369 35.5959265,36.9569566 C34.3599107,35.9141011 33.0786373,37.3720018 31.6007367,37.1014424 C30.5102097,37.3203449 28.8344034,35.5993009 28.1831555,37.4650865 C27.4076412,40.2003445 23.8742314,42.2108716 25.4267941,45.4552825 C26.9046947,48.3383508 30.4603497,50.44631 29.2726597,54.1773697 C28.2092361,57.6624198 24.6955146,60.9807358 26.8750345,65 C25.9798563,64.7100054 24.3083967,65.2651891 24.3324318,63.8351627 C22.9529726,58.9676514 28.8361932,56.1318926 27.0189891,51.2666828 C26.1734152,48.2869496 22.3203903,46.6408337 23.1685211,43.0568172 C23.7957339,40.1064926 27.1056688,38.0437971 26.6413318,34.8124284 C26.6037451,34.5416133 26.5372651,34.2649164 26.4421477,33.9759447 C25.2066432,30.4888488 22.68603,27.0007299 24.1884771,22.930576 C24.6009085,21.7680402 25.4244929,20.7750515 26.1486131,19.7362877 C23.7514992,21.019271 22.5420753,23.7325365 22.5916796,26.4926 C22.4868458,29.4945815 24.7042081,32.0656626 25.0194766,34.8124284 C25.1437429,35.92075 24.9622015,37.0556672 24.1884771,38.2598866 C22.6159704,40.3941857 20.5591827,42.6445849 21.5021754,45.454771 C22.398632,48.2892512 25.933576,50.0069707 25.7157263,53.3015041 C25.6914355,57.1992979 21.163639,59.6258931 22.4469579,63.9847631 L20.193543,63.2533833 C19.2986205,59.3798836 23.4142413,57.3982536 23.4615443,53.8142371 C24.044011,49.6931934 18.7882589,48.1642006 19.103783,44.1467264 C19.0812821,41.0938553 21.7678395,39.1610692 22.9542511,36.5935682 C23.1575263,35.968571 23.2255404,35.3783526 23.1981814,34.8124284 C23.0529483,31.9736008 20.4952597,29.7538888 20.9197087,26.5621578 C21.0623849,24.2133036 21.8616785,22.154444 23.3876493,20.3873691 C21.2822801,21.2333147 20.4124155,23.6576084 19.8309715,25.6924296 C18.8214989,28.9547414 21.230886,31.8892109 21.4722594,34.8124284 C21.5793944,36.1030835 21.264126,37.3863225 20.049844,38.698203 C18.3055122,40.7542496 16.5363782,43.3486019 17.795662,46.1114784 C19.1290966,49.1605137 23.3193795,51.533662 21.5021754,55.3363253 C20.5106012,57.7342791 18.136244,59.5494307 18.2336627,62.3821208 C17.60466,62.115653 16.9521336,61.8499525 16.417737,61.3671396 C16.417737,57.7590847 21.5492227,55.5058724 19.1042944,51.7039763 C18.8874675,52.4540242 18.8411872,53.4733527 18.6714076,54.3210884 C17.8227654,56.5262239 16.0076068,58.2907415 15.3282328,60.5700379 C14.1919369,60.1317215 13.0045026,59.2103365 12.0592087,58.2418976 L13.3683525,57.4407043 C13.2228637,56.9553341 12.8362571,56.5441248 12.4977207,56.132404 C11.6478,56.0129794 11.0896241,56.5707204 10.3887719,56.7893672 C9.78354861,56.2554088 9.19929205,55.7710615 8.71705666,55.1171671 C9.15147762,53.8797032 12.5460466,54.9028677 10.8265169,52.8680465 C9.66541884,52.142037 8.50022972,53.1792665 7.48334206,53.6636138 L6.10490569,51.9226231 C7.29131725,51.1963578 8.47466051,50.177285 9.95051558,50.4693254 C10.3141098,51.1244985 10.339679,52.0875671 11.0400198,52.4297301 C13.5345524,52.3813976 15.3024079,50.4943867 17.2147295,49.0165393 C15.8815506,47.0331192 14.7969045,44.2947925 15.9807592,41.8963272 C16.929377,39.4924916 19.4008973,37.4681552 19.5128905,34.8111497 C19.538204,34.2063549 19.4438536,33.5698499 19.1794679,32.8852683 C17.8723697,29.5183641 17.411101,24.9682102 19.9056336,21.9882213 C18.5491868,22.3528883 17.7496374,24.0435007 17.2888802,25.3272512 C15.7895014,28.6146242 17.6859701,31.6605908 17.7514273,34.8111497 C17.7603765,35.3775854 17.7146076,35.9452998 17.5773009,36.5176172 C16.293215,39.1086451 14.2131594,41.3820598 13.8756457,44.3638388 C12.3977451,45.3064492 11.1849973,46.9548667 9.07962813,46.3984043 C9.0057331,46.9548667 9.17525699,47.8031138 9.36830456,48.4332256 C7.69863484,48.3631563 6.56003771,49.5937156 5.15449798,50.1752392 C4.40557569,49.9348556 4.21099396,48.9666725 3.92078338,48.2892512 C5.56590665,47.733556 6.75334098,46.0838599 8.64265025,46.1096883 C8.86152273,45.5013134 8.51940663,44.9438281 8.42326639,44.3630716 C6.07345556,43.3199604 2.34802098,49.5200661 2.0350538,44.1446806 C4.38333047,43.9994276 5.88373199,41.8190976 8.20950775,41.6017295 L8.27905602,39.8607388 C5.63980168,39.5945268 3.94200582,42.3077922 1.30377426,42.0400459 L0.722330314,39.7165086 C3.77376039,39.9072811 5.59224294,37.1720231 8.49843988,37.02498 C8.88427933,36.5171058 8.93132668,35.7662908 9.0057331,35.0645754 C5.83310494,34.6510645 3.6563977,38.1675691 0.28944351,37.0993966 C0.28944351,37.0993966 0.173103583,35.6361256 0.110203315,34.8111497 C0.0923048649,34.4881663 0.0703153403,34.2636378 0.0703153403,34.2636378 C3.07265253,35.4287309 5.7108841,33.2719278 8.27905602,32.1587473 C8.93234945,31.963116 9.95102696,32.3022103 10.2440502,31.5762008 C10.2187366,31.0194827 11.2343458,30.3681456 10.3887719,29.9791845 C6.63367705,29.4695202 4.13940016,33.9989602 0.288932126,31.9393334 L0,31.3572983 C0.800572111,20.4116632 6.97221346,9.83043935 17.2139624,4.62332234 C21.3618004,2.25221986 26.5147642,1.04416462 31.7117071,1.00120245 C37.9835798,0.949034106 44.3203982,2.59438283 49.0351057,5.93213409 C53.6130179,8.74053007 57.9920016,13.3691922 60.3686601,18.0676678 C62.6417633,22.1846198 63.6875442,26.80382 64,31.7217096 C60.0275668,34.7231796 57.3629989,28.8938783 53.3182049,30.1983427 C53.5363103,30.8294774 53.6564856,31.4818375 54.1192884,32.0147729 C57.7038366,31.9894559 60.1722886,35.7432753 63.9248265,34.2636378 L63.9286619,34.8111497 Z M31.8280785,12.2941176 C32.9196153,12.9169301 34.0770165,13.7186586 34.9579832,14.5681466 L34.6120116,14.9124026 C32.873094,14.7293651 31.0416236,14.9579802 29.3930553,14.9831933 C29.2091737,14.7994285 28.8387172,14.5232964 29.1837094,14.2924994 L31.8280785,12.2941176 Z" transform="translate(0 -1)"/>
</svg>
