<svg xmlns="http://www.w3.org/2000/svg" width="370" height="110" viewBox="0 0 370 110">
  <g fill="none" fill-rule="evenodd">
    <g fill="#43A8C7" transform="translate(209)">
      <path d="M7.488,106.2304 C10.2912,106.2304 11.9232,104.6752 12.8256,103.0816 L10.4832,101.9488 C9.9456,102.9856 8.7936,103.8112 7.488,103.8112 C5.1456,103.8112 3.456,102.0256 3.456,99.6064 C3.456,97.1872 5.1456,95.4016 7.488,95.4016 C8.7936,95.4016 9.9456,96.2272 10.4832,97.264 L12.8256,96.112 C11.9232,94.4992 10.2912,92.9824 7.488,92.9824 C3.6288,92.9824 0.6528,95.6512 0.6528,99.6064 C0.6528,103.5424 3.6288,106.2304 7.488,106.2304 Z M22.4256,106 L19.968,106 L19.968,105.0208 C19.3344,105.7888 18.24,106.2304 17.0304,106.2304 C15.552,106.2304 13.824,105.232 13.824,103.1584 C13.824,100.9696 15.552,100.1632 17.0304,100.1632 C18.2784,100.1632 19.3536,100.5664 19.968,101.296 L19.968,100.1248 C19.968,99.184 19.1616,98.5696 17.9328,98.5696 C16.9536,98.5696 16.032,98.9536 15.264,99.664 L14.304,97.9552 C15.4368,96.9376 16.896,96.496 18.3552,96.496 C20.4864,96.496 22.4256,97.3408 22.4256,100.0096 L22.4256,106 Z M18.0096,104.5792 C18.7968,104.5792 19.5648,104.3104 19.968,103.7728 L19.968,102.6208 C19.5648,102.0832 18.7968,101.7952 18.0096,101.7952 C17.0496,101.7952 16.2624,102.3136 16.2624,103.1968 C16.2624,104.08 17.0496,104.5792 18.0096,104.5792 Z M38.784,106 L38.784,99.2992 C38.784,97.3984 37.7664,96.496 36.0576,96.496 C34.6368,96.496 33.408,97.3408 32.8704,98.1664 C32.544,97.1296 31.6608,96.496 30.2976,96.496 C28.8768,96.496 27.6672,97.3792 27.264,97.9168 L27.264,96.7264 L24.8256,96.7264 L24.8256,106 L27.264,106 L27.264,99.7408 C27.6288,99.2416 28.3392,98.6656 29.184,98.6656 C30.1824,98.6656 30.5664,99.28 30.5664,100.144 L30.5664,106 L33.024,106 L33.024,99.7408 C33.3696,99.2416 34.08,98.6656 34.944,98.6656 C35.9424,98.6656 36.3264,99.28 36.3264,100.144 L36.3264,106 L38.784,106 Z M46.5024,106.2304 C45.408,106.2304 44.4096,105.7696 43.6416,104.8096 L43.6416,109.5328 L41.2032,109.5328 L41.2032,96.7264 L43.6416,96.7264 L43.6416,97.8976 C44.352,96.9952 45.3696,96.496 46.5024,96.496 C48.8832,96.496 50.6112,98.2624 50.6112,101.3536 C50.6112,104.4448 48.8832,106.2304 46.5024,106.2304 Z M45.7344,104.0608 C47.136,104.0608 48.096,102.9664 48.096,101.3536 C48.096,99.76 47.136,98.6656 45.7344,98.6656 C44.9472,98.6656 44.064,99.1072 43.6416,99.7216 L43.6416,102.9856 C44.0448,103.5808 44.9472,104.0608 45.7344,104.0608 Z M61.0944,106 L61.0944,96.7264 L58.656,96.7264 L58.656,103.0048 C58.2336,103.5424 57.4848,104.0608 56.544,104.0608 C55.5072,104.0608 54.8352,103.6384 54.8352,102.352 L54.8352,96.7264 L52.3968,96.7264 L52.3968,103.312 C52.3968,105.1168 53.3568,106.2304 55.392,106.2304 C56.9088,106.2304 58.0224,105.52 58.656,104.8288 L58.656,106 L61.0944,106 Z M66.8544,106.2304 C69.4272,106.2304 70.8864,104.9824 70.8864,103.2736 C70.8864,99.5296 65.376,100.6816 65.376,99.3184 C65.376,98.8 65.952,98.416 66.8352,98.416 C67.968,98.416 69.024,98.9152 69.5808,99.4912 L70.56,97.7632 C69.6384,97.0336 68.3904,96.496 66.8352,96.496 C64.3776,96.496 63.0336,97.8592 63.0336,99.4144 C63.0336,103.0624 68.5248,101.8144 68.5248,103.3312 C68.5248,103.9072 68.0256,104.3104 66.9696,104.3104 C65.8176,104.3104 64.4544,103.6768 63.7632,103.024 L62.7072,104.7904 C63.6864,105.6928 65.2416,106.2304 66.8544,106.2304 Z M77.0304,106.2304 C74.208,106.2304 72.0768,104.3296 72.0768,101.3536 C72.0768,98.6656 74.0736,96.496 76.8768,96.496 C79.6608,96.496 81.5232,98.5696 81.5232,101.584 L81.5232,102.16 L74.6304,102.16 C74.8032,103.2928 75.7248,104.2336 77.2992,104.2336 C78.0864,104.2336 79.1616,103.9072 79.7568,103.3312 L80.8512,104.944 C79.9296,105.7888 78.4704,106.2304 77.0304,106.2304 Z M79.1808,100.4704 C79.104,99.5872 78.4896,98.4928 76.8768,98.4928 C75.36,98.4928 74.7072,99.5488 74.6112,100.4704 L79.1808,100.4704 Z M86.6304,106.2304 C89.2032,106.2304 90.6624,104.9824 90.6624,103.2736 C90.6624,99.5296 85.152,100.6816 85.152,99.3184 C85.152,98.8 85.728,98.416 86.6112,98.416 C87.744,98.416 88.8,98.9152 89.3568,99.4912 L90.336,97.7632 C89.4144,97.0336 88.1664,96.496 86.6112,96.496 C84.1536,96.496 82.8096,97.8592 82.8096,99.4144 C82.8096,103.0624 88.3008,101.8144 88.3008,103.3312 C88.3008,103.9072 87.8016,104.3104 86.7456,104.3104 C85.5936,104.3104 84.2304,103.6768 83.5392,103.024 L82.4832,104.7904 C83.4624,105.6928 85.0176,106.2304 86.6304,106.2304 Z"/>
      <path d="M29.6768,13.9792 L17.4912,13.9792 L17.4912,22.9008 L7.6992,22.9008 L7.6992,3.5344 L40.7744,3.5344 L40.7744,14.632 L21.952,81 L10.2016,81 L29.6768,13.9792 Z M70.1504,13.9792 L57.9648,13.9792 L57.9648,22.9008 L48.1728,22.9008 L48.1728,3.5344 L81.248,3.5344 L81.248,14.632 L62.4256,81 L50.6752,81 L70.1504,13.9792 Z M88.6464,19.528 C88.6464,16.9167869 89.0997288,14.5957435 90.0064,12.5648 C90.9130712,10.5338565 92.1279924,8.79307392 93.6512,7.3424 C95.1744076,5.89172608 96.9333234,4.78560381 98.928,4.024 C100.922677,3.26239619 103.007989,2.8816 105.184,2.8816 C107.360011,2.8816 109.445323,3.26239619 111.44,4.024 C113.434677,4.78560381 115.193592,5.89172608 116.7168,7.3424 C118.240008,8.79307392 119.454929,10.5338565 120.3616,12.5648 C121.268271,14.5957435 121.7216,16.9167869 121.7216,19.528 L121.7216,65.0064 C121.7216,67.6176131 121.268271,69.9386565 120.3616,71.9696 C119.454929,74.0005435 118.240008,75.7413261 116.7168,77.192 C115.193592,78.6426739 113.434677,79.7487962 111.44,80.5104 C109.445323,81.2720038 107.360011,81.6528 105.184,81.6528 C103.007989,81.6528 100.922677,81.2720038 98.928,80.5104 C96.9333234,79.7487962 95.1744076,78.6426739 93.6512,77.192 C92.1279924,75.7413261 90.9130712,74.0005435 90.0064,71.9696 C89.0997288,69.9386565 88.6464,67.6176131 88.6464,65.0064 L88.6464,19.528 Z M99.744,65.0064 C99.744,66.6021413 100.251728,67.9258614 101.2672,68.9776 C102.282672,70.0293386 103.588259,70.5552 105.184,70.5552 C106.779741,70.5552 108.085328,70.0293386 109.1008,68.9776 C110.116272,67.9258614 110.624,66.6021413 110.624,65.0064 L110.624,19.528 C110.624,17.9322587 110.116272,16.6085386 109.1008,15.5568 C108.085328,14.5050614 106.779741,13.9792 105.184,13.9792 C103.588259,13.9792 102.282672,14.5050614 101.2672,15.5568 C100.251728,16.6085386 99.744,17.9322587 99.744,19.528 L99.744,65.0064 Z M142.0608,48.616 L147.1808,48.616 L147.1808,62.248 L160.8128,62.248 L160.8128,67.368 L147.1808,67.368 L147.1808,81 L142.0608,81 L142.0608,67.368 L128.4288,67.368 L128.4288,62.248 L142.0608,62.248 L142.0608,48.616 Z" opacity=".2"/>
      <path d="M25.6768,11.9792 L13.4912,11.9792 L13.4912,20.9008 L3.6992,20.9008 L3.6992,1.5344 L36.7744,1.5344 L36.7744,12.632 L17.952,79 L6.2016,79 L25.6768,11.9792 Z M66.1504,11.9792 L53.9648,11.9792 L53.9648,20.9008 L44.1728,20.9008 L44.1728,1.5344 L77.248,1.5344 L77.248,12.632 L58.4256,79 L46.6752,79 L66.1504,11.9792 Z M84.6464,17.528 C84.6464,14.9167869 85.0997288,12.5957435 86.0064,10.5648 C86.9130712,8.53385651 88.1279924,6.79307392 89.6512,5.3424 C91.1744076,3.89172608 92.9333234,2.78560381 94.928,2.024 C96.9226766,1.26239619 99.0079891,0.8816 101.184,0.8816 C103.360011,0.8816 105.445323,1.26239619 107.44,2.024 C109.434677,2.78560381 111.193592,3.89172608 112.7168,5.3424 C114.240008,6.79307392 115.454929,8.53385651 116.3616,10.5648 C117.268271,12.5957435 117.7216,14.9167869 117.7216,17.528 L117.7216,63.0064 C117.7216,65.6176131 117.268271,67.9386565 116.3616,69.9696 C115.454929,72.0005435 114.240008,73.7413261 112.7168,75.192 C111.193592,76.6426739 109.434677,77.7487962 107.44,78.5104 C105.445323,79.2720038 103.360011,79.6528 101.184,79.6528 C99.0079891,79.6528 96.9226766,79.2720038 94.928,78.5104 C92.9333234,77.7487962 91.1744076,76.6426739 89.6512,75.192 C88.1279924,73.7413261 86.9130712,72.0005435 86.0064,69.9696 C85.0997288,67.9386565 84.6464,65.6176131 84.6464,63.0064 L84.6464,17.528 Z M95.744,63.0064 C95.744,64.6021413 96.2517283,65.9258614 97.2672,66.9776 C98.2826717,68.0293386 99.5882587,68.5552 101.184,68.5552 C102.779741,68.5552 104.085328,68.0293386 105.1008,66.9776 C106.116272,65.9258614 106.624,64.6021413 106.624,63.0064 L106.624,17.528 C106.624,15.9322587 106.116272,14.6085386 105.1008,13.5568 C104.085328,12.5050614 102.779741,11.9792 101.184,11.9792 C99.5882587,11.9792 98.2826717,12.5050614 97.2672,13.5568 C96.2517283,14.6085386 95.744,15.9322587 95.744,17.528 L95.744,63.0064 Z M138.0608,46.616 L143.1808,46.616 L143.1808,60.248 L156.8128,60.248 L156.8128,65.368 L143.1808,65.368 L143.1808,79 L138.0608,79 L138.0608,65.368 L124.4288,65.368 L124.4288,60.248 L138.0608,60.248 L138.0608,46.616 Z"/>
    </g>
    <g fill="#B5BE00" transform="translate(0 2)">
      <path d="M7.488 104.2304C10.2912 104.2304 11.9232 102.6752 12.8256 101.0816L10.4832 99.9488C9.9456 100.9856 8.7936 101.8112 7.488 101.8112 5.1456 101.8112 3.456 100.0256 3.456 97.6064 3.456 95.1872 5.1456 93.4016 7.488 93.4016 8.7936 93.4016 9.9456 94.2272 10.4832 95.264L12.8256 94.112C11.9232 92.4992 10.2912 90.9824 7.488 90.9824 3.6288 90.9824.6528 93.6512.6528 97.6064.6528 101.5424 3.6288 104.2304 7.488 104.2304zM18.7008 104.2304C15.648 104.2304 13.8048 101.984 13.8048 99.3536 13.8048 96.7232 15.648 94.496 18.7008 94.496 21.7728 94.496 23.616 96.7232 23.616 99.3536 23.616 101.984 21.7728 104.2304 18.7008 104.2304zM18.7008 102.0608C20.2368 102.0608 21.0816 100.8128 21.0816 99.3536 21.0816 97.9136 20.2368 96.6656 18.7008 96.6656 17.184 96.6656 16.3392 97.9136 16.3392 99.3536 16.3392 100.8128 17.184 102.0608 18.7008 102.0608zM27.8784 104L27.8784 91.1936 25.44 91.1936 25.44 104 27.8784 104zM32.736 104L32.736 91.1936 30.2976 91.1936 30.2976 104 32.736 104zM39.5136 104.2304C36.6912 104.2304 34.56 102.3296 34.56 99.3536 34.56 96.6656 36.5568 94.496 39.36 94.496 42.144 94.496 44.0064 96.5696 44.0064 99.584L44.0064 100.16 37.1136 100.16C37.2864 101.2928 38.208 102.2336 39.7824 102.2336 40.5696 102.2336 41.6448 101.9072 42.24 101.3312L43.3344 102.944C42.4128 103.7888 40.9536 104.2304 39.5136 104.2304zM41.664 98.4704C41.5872 97.5872 40.9728 96.4928 39.36 96.4928 37.8432 96.4928 37.1904 97.5488 37.0944 98.4704L41.664 98.4704zM49.5744 107.7632C48 107.7632 46.752 107.3984 45.5808 106.3808L46.6752 104.6336C47.424 105.44 48.4224 105.7664 49.5744 105.7664 50.7456 105.7664 52.1472 105.2672 52.1472 103.3856L52.1472 102.4832C51.4176 103.4048 50.4192 103.9232 49.2672 103.9232 46.9632 103.9232 45.1776 102.3104 45.1776 99.2192 45.1776 96.1856 46.9248 94.496 49.2672 94.496 50.3808 94.496 51.3984 94.9568 52.1472 95.9168L52.1472 94.7264 54.5856 94.7264 54.5856 103.3856C54.5856 106.8992 51.8592 107.7632 49.5744 107.7632zM50.0544 101.7728C50.8416 101.7728 51.7248 101.312 52.1472 100.7168L52.1472 97.7024C51.7248 97.1072 50.8416 96.6656 50.0544 96.6656 48.6528 96.6656 47.6928 97.6256 47.6928 99.2192 47.6928 100.8128 48.6528 101.7728 50.0544 101.7728zM61.3632 104.2304C58.5408 104.2304 56.4096 102.3296 56.4096 99.3536 56.4096 96.6656 58.4064 94.496 61.2096 94.496 63.9936 94.496 65.856 96.5696 65.856 99.584L65.856 100.16 58.9632 100.16C59.136 101.2928 60.0576 102.2336 61.632 102.2336 62.4192 102.2336 63.4944 101.9072 64.0896 101.3312L65.184 102.944C64.2624 103.7888 62.8032 104.2304 61.3632 104.2304zM63.5136 98.4704C63.4368 97.5872 62.8224 96.4928 61.2096 96.4928 59.6928 96.4928 59.04 97.5488 58.944 98.4704L63.5136 98.4704zM77.184 104.2304C80.6208 104.2304 82.3104 102.464 82.3104 100.1216 82.3104 95.3408 74.9568 96.704 74.9568 94.688 74.9568 93.92 75.6096 93.4208 76.7616 93.4208 78.0672 93.4208 79.4496 93.8624 80.4864 94.8224L82.0032 92.7872C80.736 91.616 79.0464 91.0016 77.0112 91.0016 73.9968 91.0016 72.1536 92.768 72.1536 94.8992 72.1536 99.7184 79.5264 98.1632 79.5264 100.3904 79.5264 101.1392 78.816 101.8112 77.2992 101.8112 75.5328 101.8112 74.1312 101.0048 73.2288 100.064L71.7312 102.1952C72.9408 103.4048 74.7072 104.2304 77.184 104.2304zM87.1872 104.2304C88.2048 104.2304 88.8576 103.9616 89.2224 103.6352L88.704 101.7728C88.5696 101.9264 88.224 102.0608 87.8592 102.0608 87.3216 102.0608 87.0144 101.6192 87.0144 101.024L87.0144 96.8576 88.896 96.8576 88.896 94.7264 87.0144 94.7264 87.0144 92.192 84.576 92.192 84.576 94.7264 83.04 94.7264 83.04 96.8576 84.576 96.8576 84.576 101.6768C84.576 103.3472 85.4784 104.2304 87.1872 104.2304zM99.264 104L99.264 94.7264 96.8256 94.7264 96.8256 101.0048C96.4032 101.5424 95.6544 102.0608 94.7136 102.0608 93.6768 102.0608 93.0048 101.6384 93.0048 100.352L93.0048 94.7264 90.5664 94.7264 90.5664 101.312C90.5664 103.1168 91.5264 104.2304 93.5616 104.2304 95.0784 104.2304 96.192 103.52 96.8256 102.8288L96.8256 104 99.264 104zM110.5152 104L108.0576 104 108.0576 102.8096C107.328 103.7312 106.3296 104.2304 105.1968 104.2304 102.8736 104.2304 101.088 102.464 101.088 99.3536 101.088 96.3392 102.8352 94.496 105.1968 94.496 106.2912 94.496 107.328 94.9568 108.0576 95.9168L108.0576 91.1936 110.5152 91.1936 110.5152 104zM105.9648 102.0608C106.7712 102.0608 107.6544 101.6192 108.0576 101.0048L108.0576 97.7216C107.6544 97.1072 106.7712 96.6656 105.9648 96.6656 104.5632 96.6656 103.6032 97.76 103.6032 99.3536 103.6032 100.9664 104.5632 102.0608 105.9648 102.0608zM117.2928 104.2304C114.4704 104.2304 112.3392 102.3296 112.3392 99.3536 112.3392 96.6656 114.336 94.496 117.1392 94.496 119.9232 94.496 121.7856 96.5696 121.7856 99.584L121.7856 100.16 114.8928 100.16C115.0656 101.2928 115.9872 102.2336 117.5616 102.2336 118.3488 102.2336 119.424 101.9072 120.0192 101.3312L121.1136 102.944C120.192 103.7888 118.7328 104.2304 117.2928 104.2304zM119.4432 98.4704C119.3664 97.5872 118.752 96.4928 117.1392 96.4928 115.6224 96.4928 114.9696 97.5488 114.8736 98.4704L119.4432 98.4704zM132.2688 104L132.2688 97.4528C132.2688 95.648 131.2896 94.496 129.2352 94.496 127.7376 94.496 126.5856 95.2256 125.9904 95.9168L125.9904 94.7264 123.552 94.7264 123.552 104 125.9904 104 125.9904 97.7408C126.4128 97.2032 127.1424 96.6656 128.1024 96.6656 129.1392 96.6656 129.8112 97.1072 129.8112 98.3936L129.8112 104 132.2688 104zM137.7792 104.2304C138.7968 104.2304 139.4496 103.9616 139.8144 103.6352L139.296 101.7728C139.1616 101.9264 138.816 102.0608 138.4512 102.0608 137.9136 102.0608 137.6064 101.6192 137.6064 101.024L137.6064 96.8576 139.488 96.8576 139.488 94.7264 137.6064 94.7264 137.6064 92.192 135.168 92.192 135.168 94.7264 133.632 94.7264 133.632 96.8576 135.168 96.8576 135.168 101.6768C135.168 103.3472 136.0704 104.2304 137.7792 104.2304zM144.4992 104.2304C147.072 104.2304 148.5312 102.9824 148.5312 101.2736 148.5312 97.5296 143.0208 98.6816 143.0208 97.3184 143.0208 96.8 143.5968 96.416 144.48 96.416 145.6128 96.416 146.6688 96.9152 147.2256 97.4912L148.2048 95.7632C147.2832 95.0336 146.0352 94.496 144.48 94.496 142.0224 94.496 140.6784 95.8592 140.6784 97.4144 140.6784 101.0624 146.1696 99.8144 146.1696 101.3312 146.1696 101.9072 145.6704 102.3104 144.6144 102.3104 143.4624 102.3104 142.0992 101.6768 141.408 101.024L140.352 102.7904C141.3312 103.6928 142.8864 104.2304 144.4992 104.2304zM36.7744 9.9792L14.7968 9.9792 14.7968 30.8688C15.8122717 29.8533283 17.1178587 29.0010701 18.7136 28.312 20.3093413 27.6229299 22.0863902 27.2784 24.0448 27.2784 27.8165522 27.2784 30.8810549 28.4389217 33.2384 30.76 35.5957451 33.0810783 36.7744 36.4901108 36.7744 40.9872L36.7744 61.0064C36.7744 63.6176131 36.3210712 65.9386565 35.4144 67.9696 34.5077288 70.0005435 33.2928076 71.7413261 31.7696 73.192 30.2463924 74.6426739 28.4874766 75.7487962 26.4928 76.5104 24.4981234 77.2720038 22.4128109 77.6528 20.2368 77.6528 18.0607891 77.6528 15.9754766 77.2720038 13.9808 76.5104 11.9861234 75.7487962 10.2272076 74.6426739 8.704 73.192 7.18079238 71.7413261 5.9658712 70.0005435 5.0592 67.9696 4.1525288 65.9386565 3.6992 63.6176131 3.6992 61.0064L3.6992 57.7424 14.7968 57.7424 14.7968 60.5712C14.7968 62.4570761 15.3226614 63.9258614 16.3744 64.9776 17.4261386 66.0293386 18.786125 66.5552 20.4544 66.5552 22.122675 66.5552 23.4101288 66.0474717 24.3168 65.032 25.2234712 64.0165283 25.6768 62.6021424 25.6768 60.7888L25.6768 42.6192C25.6768 41.0959924 25.1872049 39.7904054 24.208 38.7024 23.2287951 37.6143946 21.9776076 37.0704 20.4544 37.0704 19.511462 37.0704 18.7136033 37.2335984 18.0608 37.56 17.4079967 37.8864016 16.8640022 38.2671978 16.4288 38.7024 15.9935978 39.1376022 15.6490679 39.6090641 15.3952 40.1168L14.7968 41.3136 5.0048 41.3136 5.0048-.4656 36.7744-.4656 36.7744 9.9792z"/>
      <path d="M40.7744,12.9792 L18.7968,12.9792 L18.7968,33.8688 C19.8122717,32.8533283 21.1178587,32.0010701 22.7136,31.312 C24.3093413,30.6229299 26.0863902,30.2784 28.0448,30.2784 C31.8165522,30.2784 34.8810549,31.4389217 37.2384,33.76 C39.5957451,36.0810783 40.7744,39.4901108 40.7744,43.9872 L40.7744,64.0064 C40.7744,66.6176131 40.3210712,68.9386565 39.4144,70.9696 C38.5077288,73.0005435 37.2928076,74.7413261 35.7696,76.192 C34.2463924,77.6426739 32.4874766,78.7487962 30.4928,79.5104 C28.4981234,80.2720038 26.4128109,80.6528 24.2368,80.6528 C22.0607891,80.6528 19.9754766,80.2720038 17.9808,79.5104 C15.9861234,78.7487962 14.2272076,77.6426739 12.704,76.192 C11.1807924,74.7413261 9.9658712,73.0005435 9.0592,70.9696 C8.1525288,68.9386565 7.6992,66.6176131 7.6992,64.0064 L7.6992,60.7424 L18.7968,60.7424 L18.7968,63.5712 C18.7968,65.4570761 19.3226614,66.9258614 20.3744,67.9776 C21.4261386,69.0293386 22.786125,69.5552 24.4544,69.5552 C26.122675,69.5552 27.4101288,69.0474717 28.3168,68.032 C29.2234712,67.0165283 29.6768,65.6021424 29.6768,63.7888 L29.6768,45.6192 C29.6768,44.0959924 29.1872049,42.7904054 28.208,41.7024 C27.2287951,40.6143946 25.9776076,40.0704 24.4544,40.0704 C23.511462,40.0704 22.7136033,40.2335984 22.0608,40.56 C21.4079967,40.8864016 20.8640022,41.2671978 20.4288,41.7024 C19.9935978,42.1376022 19.6490679,42.6090641 19.3952,43.1168 L18.7968,44.3136 L9.0048,44.3136 L9.0048,2.5344 L40.7744,2.5344 L40.7744,12.9792 Z" opacity=".2"/>
      <path d="M46.1504,51.0416 L51.3728,51.0416 L51.3728,53.5504 L51.4752,53.5504 C52.0213361,52.7311959 52.6783962,52.0570693 53.4464,51.528 C54.2144038,50.9989307 55.1957274,50.7344 56.3904,50.7344 C57.5168056,50.7344 58.4554629,51.0074639 59.2064,51.5536 C59.9573371,52.0997361 60.5717309,52.6970634 61.0496,53.3456 C61.6981366,52.6287964 62.4149294,52.0144026 63.2,51.5024 C63.9850706,50.9903974 65.0773263,50.7344 66.4768,50.7344 C67.1253366,50.7344 67.7909299,50.8453322 68.4736,51.0672 C69.1562701,51.2890678 69.7706639,51.6559974 70.3168,52.168 C70.8629361,52.6800026 71.306665,53.3370627 71.648,54.1392 C71.989335,54.9413373 72.16,55.9226609 72.16,57.0832 L72.16,77 L66.9376,77 L66.9376,59.0288 C66.9376,58.0730619 66.7157356,57.3221361 66.272,56.776 C65.8282644,56.2298639 65.1968041,55.9568 64.3776,55.9568 C63.3877284,55.9568 62.7050685,56.2639969 62.3296,56.8784 C61.9541315,57.4928031 61.7664,58.3802609 61.7664,59.5408 L61.7664,77 L56.544,77 L56.544,59.0288 C56.544,58.0730619 56.3221356,57.3221361 55.8784,56.776 C55.4346644,56.2298639 54.8032041,55.9568 53.984,55.9568 C52.9941284,55.9568 52.3114685,56.2639969 51.936,56.8784 C51.5605315,57.4928031 51.3728,58.3802609 51.3728,59.5408 L51.3728,77 L46.1504,77 L46.1504,51.0416 Z M76.4608,51.0416 L81.6832,51.0416 L81.6832,77 L76.4608,77 L76.4608,51.0416 Z M76.4608,40.5456 L81.6832,40.5456 L81.6832,45.768 L76.4608,45.768 L76.4608,40.5456 Z M85.6768,40.5456 L90.8992,40.5456 L90.8992,69.6784 C90.8992,70.6682716 91.0783982,71.3423982 91.4368,71.7008 C91.7952018,72.0592018 92.4693284,72.2895995 93.4592,72.392 L93.4592,77.3072 C92.2645274,77.3072 91.1808049,77.2133343 90.208,77.0256 C89.2351951,76.8378657 88.4160033,76.4794693 87.7504,75.9504 C87.0847967,75.4213307 86.5728018,74.6789381 86.2144,73.7232 C85.8559982,72.7674619 85.6768,71.5386742 85.6768,70.0368 L85.6768,40.5456 Z M95.2,40.5456 L100.4224,40.5456 L100.4224,69.6784 C100.4224,70.6682716 100.601598,71.3423982 100.96,71.7008 C101.318402,72.0592018 101.992528,72.2895995 102.9824,72.392 L102.9824,77.3072 C101.787727,77.3072 100.704005,77.2133343 99.7312,77.0256 C98.7583951,76.8378657 97.9392033,76.4794693 97.2736,75.9504 C96.6079967,75.4213307 96.0960018,74.6789381 95.7376,73.7232 C95.3791982,72.7674619 95.2,71.5386742 95.2,70.0368 L95.2,40.5456 Z M105.0304,51.0416 L110.2528,51.0416 L110.2528,77 L105.0304,77 L105.0304,51.0416 Z M105.0304,40.5456 L110.2528,40.5456 L110.2528,45.768 L105.0304,45.768 L105.0304,40.5456 Z M114.0928,59.7456 C114.0928,58.6874614 114.161066,57.7146711 114.2976,56.8272 C114.434134,55.9397289 114.690131,55.1546701 115.0656,54.472 C115.680003,53.3455944 116.567461,52.4410701 117.728,51.7584 C118.888539,51.0757299 120.270925,50.7344 121.8752,50.7344 C123.479475,50.7344 124.861861,51.0757299 126.0224,51.7584 C127.182939,52.4410701 128.070397,53.3455944 128.6848,54.472 C129.060269,55.1546701 129.316266,55.9397289 129.4528,56.8272 C129.589334,57.7146711 129.6576,58.6874614 129.6576,59.7456 L129.6576,68.296 C129.6576,69.3541386 129.589334,70.3269289 129.4528,71.2144 C129.316266,72.1018711 129.060269,72.8869299 128.6848,73.5696 C128.070397,74.6960056 127.182939,75.6005299 126.0224,76.2832 C124.861861,76.9658701 123.479475,77.3072 121.8752,77.3072 C120.270925,77.3072 118.888539,76.9658701 117.728,76.2832 C116.567461,75.6005299 115.680003,74.6960056 115.0656,73.5696 C114.690131,72.8869299 114.434134,72.1018711 114.2976,71.2144 C114.161066,70.3269289 114.0928,69.3541386 114.0928,68.296 L114.0928,59.7456 Z M119.3152,69.1152 C119.3152,70.1050716 119.545598,70.8474642 120.0064,71.3424 C120.467202,71.8373358 121.090129,72.0848 121.8752,72.0848 C122.660271,72.0848 123.283198,71.8373358 123.744,71.3424 C124.204802,70.8474642 124.4352,70.1050716 124.4352,69.1152 L124.4352,58.9264 C124.4352,57.9365284 124.204802,57.1941358 123.744,56.6992 C123.283198,56.2042642 122.660271,55.9568 121.8752,55.9568 C121.090129,55.9568 120.467202,56.2042642 120.0064,56.6992 C119.545598,57.1941358 119.3152,57.9365284 119.3152,58.9264 L119.3152,69.1152 Z M133.4976,51.0416 L138.72,51.0416 L138.72,53.5504 L138.8224,53.5504 C139.368536,52.7311959 140.025596,52.0570693 140.7936,51.528 C141.561604,50.9989307 142.542927,50.7344 143.7376,50.7344 C144.386137,50.7344 145.034663,50.8453322 145.6832,51.0672 C146.331737,51.2890678 146.911997,51.6559974 147.424,52.168 C147.936003,52.6800026 148.345598,53.3370627 148.6528,54.1392 C148.960002,54.9413373 149.1136,55.9226609 149.1136,57.0832 L149.1136,77 L143.8912,77 L143.8912,59.0288 C143.8912,58.0730619 143.669336,57.3221361 143.2256,56.776 C142.781864,56.2298639 142.150404,55.9568 141.3312,55.9568 C140.341328,55.9568 139.658669,56.2639969 139.2832,56.8784 C138.907731,57.4928031 138.72,58.3802609 138.72,59.5408 L138.72,77 L133.4976,77 L133.4976,51.0416 Z"/>
    </g>
  </g>
</svg>
