<svg xmlns="http://www.w3.org/2000/svg" width="40" height="33" viewBox="0 0 40 33">
  <g fill="none" fill-rule="evenodd" transform="translate(-4 -8)">
    <rect width="48" height="48"/>
    <path stroke="#43A8C7" stroke-width="3" d="M5.5,23.9953682 L5.5,39.0120235 C5.5,39.5677005 5.52311751,39.5820648 6.00520952,39.3407913 L24,30.3349032 L41.9947905,39.3407913 C42.4684652,39.5778522 42.5,39.558245 42.5,39.0120235 L42.5,23.9953682 C42.5,22.0670116 40.9303702,20.5 38.9946779,20.5 L9.00532213,20.5 C7.0658746,20.5 5.5,22.0637694 5.5,23.9953682 Z" transform="rotate(180 24 30)"/>
    <path stroke="#43A8C7" stroke-width="3" d="M5.5,32.2144789 L14.4931431,25.1142469 L24.0100846,29.6098234 L33.6622465,25.1935019 L42.5,32.2051107 L42.5,13.0090577 C42.5,11.0660955 40.9333988,9.5 38.9946779,9.5 L9.00532213,9.5 C7.06679357,9.5 5.5,11.0689751 5.5,13.0090577 L5.5,32.2144789 Z"/>
  </g>
</svg>
