<svg xmlns="http://www.w3.org/2000/svg" width="32" height="48" viewBox="0 0 32 48">
  <g fill="none" fill-rule="evenodd" transform="translate(-8)">
    <g transform="translate(8)">
      <path stroke="#43A8C7" stroke-width="3" d="M1.51841566,46.4533289 C1.58144559,46.4262997 1.65516462,46.3876944 1.7379522,46.3357439 L16,37.3860888 L30.2620478,46.3357439 C30.3448534,46.3877057 30.4185177,46.4261928 30.4814028,46.4530177 C30.4929297,46.3828085 30.5,46.2962243 30.5,46.1937621 L30.5,4.99944842 C30.5,3.06886907 28.9316972,1.5 27,1.5 L5,1.5 C3.06628695,1.5 1.5,3.06635586 1.5,4.99944842 L1.5,46.1937621 C1.5,46.2961927 1.50699324,46.3828834 1.51841566,46.4533289 Z"/>
      <polygon fill="#43A8C7" fill-rule="nonzero" points="16 24.665 21.562 28 20.09 21.711 25 17.481 18.528 16.929 16 11 13.472 16.929 7 17.481 11.909 21.711 10.438 28"/>
    </g>
    <rect width="48" height="48"/>
  </g>
</svg>
