<svg xmlns="http://www.w3.org/2000/svg" width="28" height="48" viewBox="0 0 28 48">
  <g fill="none" fill-rule="evenodd" transform="translate(-10)">
    <rect width="48" height="48"/>
    <path fill="#43A8C7" fill-rule="nonzero" d="M15.6888889,0 C12.5551386,0 10,2.69486151 10,5.99999932 L10,42.0000007 C10,45.3051276 12.5551386,48 15.6888889,48 L32.2383838,48 C35.3721341,48 37.9272727,45.3051276 37.9272727,42.0000007 L37.9272727,5.99999932 C37.9272727,2.69486151 35.3721341,0 32.2383838,0 L15.6888889,0 Z M16.0496408,2.61818182 L31.8776319,2.61818182 C33.6447282,2.61818182 35.0744904,4.11574691 35.3090909,6.10909091 L12.6181818,6.10909091 C12.8527823,4.11574691 14.2825445,2.61818182 16.0496408,2.61818182 Z M12.6181818,39.2727273 L35.3090909,39.2727273 L35.3090909,42.3272727 C35.3090909,44.0142516 33.9407728,45.3818182 32.2488939,45.3818182 L15.6783788,45.3818182 C13.9882787,45.3818182 12.6181818,44.0108189 12.6181818,42.3272727 L12.6181818,39.2727273 Z M12.6181818,8.72727273 L35.3090909,8.72727273 L35.3090909,36.6545455 L12.6181818,36.6545455 L12.6181818,8.72727273 Z"/>
    <path fill="#43A8C7" d="M25.0044204,28.8 L25.0044204,22.4303381 L27.0652247,22.4303381 L27.3714904,19.9493522 L25.0044204,19.9493522 L25.0044204,18.3636785 C25.0044204,17.6463499 25.1964853,17.1555462 26.1879554,17.1555462 L27.4545455,17.1555462 L27.4545455,14.9334457 C27.2365259,14.901085 26.4838391,14.8363636 25.6117607,14.8363636 C23.7845488,14.8363636 22.5387225,15.9959549 22.5387225,18.1209733 L22.5387225,19.9547456 L20.4727273,19.9547456 L20.4727273,22.4357316 L22.5387225,22.4357316 L22.5387225,28.8 L25.0044204,28.8 Z"/>
  </g>
</svg>
