<?xml version="1.0" encoding="utf-8"?>
<!-- Generator: Adobe Illustrator 16.0.0, SVG Export Plug-In . SVG Version: 6.00 Build 0)  -->
<!DOCTYPE svg PUBLIC "-//W3C//DTD SVG 1.1//EN" "http://www.w3.org/Graphics/SVG/1.1/DTD/svg11.dtd">
<svg version="1.1" id="Layer_1" xmlns="http://www.w3.org/2000/svg" xmlns:xlink="http://www.w3.org/1999/xlink" x="0px" y="0px"
	 width="269px" height="48px" viewBox="0 0 269 48" enable-background="new 0 0 269 48" xml:space="preserve">
<g transform="translate(0 -1)">
	<rect fill="#777777" fill-opacity="0" width="210" height="50"/>
	<g transform="translate(0 1)">
		<path fill="#777777" d="M7.035,8.375c1.298-0.064,2.02-1.167,2.02-3.203c0-2.839-0.745-4.571-3.571-4.571H1.807v16.636h3.656
			c2.551,0,4.06-1.253,4.06-4.701C9.522,9.831,8.438,8.375,7.035,8.375L7.035,8.375z M4.634,2.549h0.511
			c0.935,0,1.125,0.717,1.125,2.666c0,1.431-0.149,2.119-0.914,2.119H4.634V2.549z M5.378,15.288H4.634V9.417h0.703
			c0.934,0,1.149,0.954,1.149,2.795C6.485,14.745,6.247,15.288,5.378,15.288L5.378,15.288z M25.712,8.7
			c1.266-0.127,2.38-1.252,2.38-3.873c0-3.018-1.382-4.228-3.42-4.228h-4.359v16.638h2.936v-7.171h0.202
			c0.928,0.25,1.368,1.243,1.368,2.566v2.138c0,1.498,0.127,1.858,0.212,2.467h2.977c-0.201-0.811-0.256-2.199-0.256-3.76
			C27.751,11.458,27.538,9.263,25.712,8.7 M24.138,7.532h-0.89V2.659h0.551c0.89,0,1.336,0.391,1.336,2.819
			C25.136,7.036,24.906,7.532,24.138,7.532 M33.085,8.161c0.129,2.232,0.151,2.881,0.151,4.831v4.245h-2.7V0.6h2.678
			c0,0,1.275,4.877,1.551,5.916c0.278,1.064,0.49,1.926,0.615,2.644c-0.083-1.626-0.104-3.643-0.104-5.309V0.6h2.612v16.637h-2.4
			c0,0-1.467-5.134-1.765-6.152C33.49,10.306,33.3,9.395,33.085,8.161"/>
		<polygon fill="#777777" points="43.372,14.745 46.925,14.745 46.925,17.237 40.505,17.237 40.505,0.6 46.475,0.6 46.475,3.092 
			43.372,3.092 43.372,7.595 46.116,7.595 46.116,9.917 43.372,9.917 		"/>
		<path fill="#777777" d="M51.211,13.401c0,1.863,0.383,2.146,1.042,2.146c0.509,0,0.905-0.301,0.905-2.146
			c0-1.652-1.083-2.829-2.304-4.332c-1.104-1.356-2.345-3.21-2.345-4.783c0-2.481,1.108-3.946,3.422-3.946
			c2.276,0,3.465,1.279,3.465,3.726c0,0.584-0.106,1.001-0.214,1.346h-2.421c0.042-0.262,0.066-0.675,0.066-1.171
			c0-1.582-0.17-2.058-0.85-2.058c-0.639,0-0.747,0.631-0.747,1.822c0,1.498,1.183,2.692,2.125,3.926
			c1.387,1.815,2.504,3.262,2.504,4.956c0,2.708-1.122,4.7-3.629,4.7c-2.231,0-3.692-1.242-3.692-4.123
			c0-0.671,0.022-1.22,0.192-1.805l2.617-0.018C51.258,12.289,51.211,12.687,51.211,13.401 M15.8,0.494h-2.806l-2.376,16.761h2.526
			l0.3-2.688h1.824l0.298,2.688h3.038L15.8,0.494z M13.625,12.726c0,0,0.195-1.931,0.303-3.186c0.064-0.757,0.321-3.167,0.363-4.812
			c0.086,1.601,0.385,4.032,0.472,4.812c0.125,1.254,0.351,3.186,0.351,3.186H13.625L13.625,12.726z M11.821,27.094
			c-1.053,0-1.843,0.726-2.315,1.717c-0.472,1.098-1,2.358-1.342,3.053c-1.175-2.035-2.056-3.663-2.608-5.119
			c0.913-0.521,2.497-1.311,3.4-2.148c0.902-0.84,1.338-1.629,1.496-2.542c0.29-1.74-0.684-3.267-2.838-3.267
			c-1.814,0-3.972,1.447-4.393,3.859c-0.209,1.234,0.062,2.819,0.502,4.12c-1.63,1.127-3.05,2.366-3.42,4.322
			c-0.524,3.214,1.448,4.689,3.68,4.689c1.526,0,2.69-0.692,3.61-1.764c0.701,0.82,1.595,1.764,2.7,1.764
			c0.896,0,1.84-0.591,2.578-1.553l-0.318-0.457c-0.682,0.672-1.208,0.938-1.604,0.938c-0.708,0-1.444-0.645-2.078-1.659
			c-0.075-0.162-0.181-0.325-0.26-0.486c0.421-0.828,0.735-1.74,1.104-2.543c0.683-1.555,1.104-2.063,1.734-2.063
			c1.054,0,0.211,1.794,1.344,1.794c0.525,0,0.788-0.453,0.866-0.881C13.767,28.223,13.318,27.094,11.821,27.094 M5.012,22.216
			c0.183-1.097,1.103-2.278,2.523-2.278c1.104,0,1.84,0.859,1.603,2.172c-0.081,0.51-0.217,0.959-0.713,1.593
			c-0.497,0.634-2.286,1.761-3.144,2.228C4.896,24.648,4.794,23.477,5.012,22.216 M4.642,34.732c-2.104,0-2.89-1.795-2.655-3.219
			c0.293-1.685,1.057-2.746,2.083-3.682c0.733,1.817,1.69,3.742,3.05,5.677C6.41,34.366,5.695,34.732,4.642,34.732 M8.728,34.265
			c0,0-1.979-2.103-3.636-5.825c-2.013-4.54-0.573-6.781-0.573-6.781s-0.802,2.426,0.847,6.476
			C6.721,31.462,8.728,34.265,8.728,34.265 M17.425,26.734c0.119,2.078,0.138,2.684,0.138,4.5v3.955h-2.516v-15.5h2.496
			c0,0,1.188,4.544,1.445,5.512c0.255,0.99,0.457,1.794,0.573,2.463c-0.078-1.516-0.098-3.393-0.098-4.945v-3.029h2.434v15.5h-2.237
			c0,0-1.365-4.783-1.642-5.732C17.8,28.732,17.621,27.884,17.425,26.734 M27.52,19.448c-2.592,0-3.563,1.21-3.563,8.013
			c0,7.022,1.25,8.053,3.563,8.053c2.497,0,3.566-1.37,3.566-8.053C31.085,20.659,30.116,19.448,27.52,19.448 M28.173,32.465
			c-0.097,1.21-0.236,1.31-0.654,1.31c-0.455,0-0.614-0.118-0.71-1.31c-0.08-1.088-0.059-2.181-0.059-5.004
			c0-2.422-0.021-3.956,0.059-5.045c0.096-1.129,0.277-1.354,0.71-1.354c0.399,0,0.576,0.225,0.654,1.354
			c0.101,1.108,0.101,2.602,0.101,5.045C28.274,30.284,28.253,31.356,28.173,32.465 M38.01,26.934
			c1.209-0.061,1.881-1.089,1.881-2.984c0-2.645-0.69-4.26-3.325-4.26h-3.425v15.5h3.404c2.377,0,3.783-1.168,3.783-4.38
			C40.328,28.289,39.318,26.934,38.01,26.934L38.01,26.934z M35.771,21.505h0.477c0.872,0,1.049,0.668,1.049,2.484
			c0,1.333-0.138,1.976-0.85,1.976h-0.676V21.505z M36.466,33.374h-0.695v-5.47h0.658c0.869,0,1.068,0.889,1.068,2.604
			C37.497,32.868,37.276,33.374,36.466,33.374L36.466,33.374z"/>
		<polygon fill="#777777" points="45.038,32.868 48.266,32.868 48.266,35.189 42.263,35.189 42.263,19.689 45.038,19.689 		"/>
		<polygon fill="#777777" points="52.411,32.868 55.717,32.868 55.717,35.189 49.74,35.189 49.74,19.689 55.302,19.689 
			55.302,22.012 52.411,22.012 52.411,26.207 54.967,26.207 54.967,28.37 52.411,28.37 		"/>
		<path fill="#777777" d="M1.552,43.447c0-2.179,1.153-3.721,2.982-3.721c1.354,0,2.001,0.896,2.36,1.726L5.72,41.98
			c-0.211-0.57-0.624-0.971-1.186-0.971c-0.951,0-1.523,1.024-1.523,2.438c0,1.412,0.572,2.438,1.523,2.438
			c0.583,0,0.996-0.455,1.197-1.047l1.174,0.518c-0.35,0.863-0.995,1.812-2.371,1.812C2.705,47.167,1.552,45.625,1.552,43.447
			 M14.614,43.447c0-1.392-0.529-2.438-1.502-2.438c-0.962,0-1.48,1.046-1.48,2.438c0,1.369,0.518,2.438,1.48,2.438
			C14.085,45.885,14.614,44.816,14.614,43.447 M10.171,43.447c0-2.135,1.1-3.721,2.94-3.721c1.852,0,2.952,1.586,2.952,3.721
			c0,2.146-1.101,3.72-2.952,3.72C11.271,47.167,10.171,45.593,10.171,43.447"/>
		<polygon fill="#777777" points="19.752,47.038 19.752,39.846 21.169,39.846 21.169,45.766 23.539,45.766 23.539,47.038 		"/>
		<polygon fill="#777777" points="27.164,47.038 27.164,39.846 28.581,39.846 28.581,45.766 30.951,45.766 30.951,47.038 		"/>
		<polygon fill="#777777" points="34.576,47.038 34.576,39.846 38.617,39.846 38.617,41.118 35.993,41.118 35.993,42.747 
			38.543,42.747 38.543,44.02 35.993,44.02 35.993,45.766 38.617,45.766 38.617,47.038 		"/>
		<path fill="#777777" d="M42.185,43.447c0-2.244,1.195-3.721,2.982-3.721c1.228,0,1.969,0.767,2.349,1.65l-1.152,0.549
			c-0.223-0.507-0.615-0.916-1.197-0.916c-0.898,0-1.523,0.895-1.523,2.438c0,1.541,0.625,2.438,1.523,2.438
			c0.467,0,0.857-0.194,1.069-0.432v-1.089h-1.322v-1.272h2.666v2.932c-0.592,0.713-1.375,1.144-2.413,1.144
			C43.38,47.167,42.185,45.68,42.185,43.447"/>
		<polygon fill="#777777" points="51.647,47.038 51.647,39.846 55.688,39.846 55.688,41.118 53.064,41.118 53.064,42.747 
			55.614,42.747 55.614,44.02 53.064,44.02 53.064,45.766 55.688,45.766 55.688,47.038 		"/>
	</g>
	<polygon fill="#777777" points="67,49 69.5,49 69.5,1 67,1 	"/>
	<path fill="#777777" d="M88.866,20H78.73V1.324h9.828c3.556,0,5.376,2.268,5.376,4.76c0,2.352-1.456,3.92-3.22,4.284
		c1.988,0.308,3.584,2.24,3.584,4.592C94.298,17.76,92.422,20,88.866,20z M87.69,8.8c1.344,0,2.184-0.84,2.184-2.016
		c0-1.176-0.84-2.044-2.184-2.044h-4.984V8.8H87.69z M87.83,16.556c1.512,0,2.408-0.812,2.408-2.156c0-1.176-0.84-2.184-2.408-2.184
		h-5.124v4.34H87.83z M111.814,20h-4.564l-3.668-6.636h-2.912V20h-3.976V1.324h8.736c3.892,0,6.272,2.548,6.272,6.02
		c0,3.304-2.072,5.068-4.088,5.544L111.814,20z M104.842,9.864c1.596,0,2.8-0.952,2.8-2.521c0-1.568-1.204-2.52-2.8-2.52h-4.172
		v5.04H104.842z M131.514,20h-4.536l-1.148-3.164h-8.008L116.646,20h-4.536l7.224-18.676h4.984L131.514,20z M124.738,13.336
		L121.826,5.3l-2.912,8.036H124.738z M149.366,20V1.324h-3.976v11.732l-8.652-11.732h-4.088V20h3.976V7.82L145.529,20H149.366z
		 M159.826,20h-7.364V1.324h7.364c5.852,0,9.912,3.724,9.912,9.352C169.738,16.304,165.678,20,159.826,20z M159.826,16.5
		c3.695,0,5.852-2.66,5.852-5.824c0-3.304-2.016-5.852-5.852-5.852h-3.389V16.5H159.826z M80.596,47H79V28.324h7
		c3.584,0,5.628,2.52,5.628,5.46s-2.072,5.46-5.628,5.46h-5.404V47z M85.832,37.788c2.464,0,4.116-1.652,4.116-4.004
		c0-2.353-1.652-4.005-4.116-4.005h-5.236v8.009H85.832z M110.36,47h-1.848l-1.848-4.592H96.78L94.932,47h-1.848l7.644-18.676h1.988
		L110.36,47z M106.132,40.952l-4.424-10.92l-4.396,10.92H106.132z M125.984,47h-1.932l-5.236-7.729H114.7V47h-1.596V28.324h6.972
		c3.22,0,5.684,2.044,5.684,5.46c0,3.388-2.408,5.264-5.18,5.376L125.984,47z M119.936,37.816c2.464,0,4.144-1.681,4.144-4.032
		c0-2.353-1.68-4.005-4.144-4.005H114.7v8.037H119.936z M136.12,47V29.779h6.104v-1.455h-13.833v1.455h6.104V47H136.12z M160.452,47
		V28.324h-1.597v15.82l-11.703-15.82h-1.625V47h1.597V30.956L158.884,47H160.452z M176.943,47v-1.456h-10.248v-7.392h10.053v-1.457
		h-10.053v-6.916h10.248v-1.455H165.1V47H176.943z M193.771,47h-1.932l-5.236-7.729h-4.115V47h-1.596V28.324h6.971
		c3.221,0,5.685,2.044,5.685,5.46c0,3.388-2.407,5.264-5.18,5.376L193.771,47z M187.725,37.816c2.463,0,4.144-1.681,4.144-4.032
		c0-2.353-1.681-4.005-4.144-4.005h-5.236v8.037H187.725z M203.32,47.336c5.039,0,6.636-2.884,6.636-5.292
		c0-6.972-11.2-4.34-11.2-9.128c0-2.016,1.876-3.443,4.368-3.443c2.101,0,4.004,0.728,5.349,2.352l1.063-1.176
		c-1.456-1.652-3.528-2.633-6.328-2.633c-3.388,0-6.132,1.933-6.132,4.984c0,6.523,11.199,3.668,11.199,9.156
		c0,1.596-1.092,3.724-4.928,3.724c-2.66,0-4.619-1.315-5.824-2.716l-1.035,1.204C197.916,46.104,200.24,47.336,203.32,47.336z
		 M228.855,47V28.324h-1.623v8.344h-11.844v-8.344h-1.597V47h1.597v-8.876h11.844V47H228.855z M235.072,47V28.324h-1.596V47H235.072
		z M241.316,47h-1.596V28.324h7c3.584,0,5.627,2.52,5.627,5.46s-2.072,5.46-5.627,5.46h-5.404V47z M246.552,37.788
		c2.464,0,4.116-1.652,4.116-4.004c0-2.353-1.652-4.005-4.116-4.005h-5.235v8.009H246.552z M261.504,47.336
		c5.04,0,6.637-2.884,6.637-5.292c0-6.972-11.201-4.34-11.201-9.128c0-2.016,1.877-3.443,4.369-3.443c2.1,0,4.004,0.728,5.348,2.352
		l1.064-1.176c-1.457-1.652-3.529-2.633-6.328-2.633c-3.389,0-6.133,1.933-6.133,4.984c0,6.523,11.2,3.668,11.2,9.156
		c0,1.596-1.092,3.724-4.928,3.724c-2.66,0-4.62-1.315-5.824-2.716l-1.036,1.204C256.1,46.104,258.424,47.336,261.504,47.336z"/>
</g>
</svg>
