<svg xmlns="http://www.w3.org/2000/svg" width="156" height="70" viewBox="0 0 156 70">
  <g fill="#FFFFFF">
    <g transform="translate(0 47)">
      <path d="M27.0968764 12.7146868L20.4028934 12.7146868 20.4028934 22.7250952 15.7293318 22.7250952 15.7293318.338459815 20.4028934.338459815 20.4028934 9.29739324 27.099933 9.29739324 27.099933.338459815 31.7734947.338459815 31.7734947 22.7250952 27.0968764 22.7250952 27.0968764 12.7146868M149.602879 3.75575342L155.954521 3.75575342 155.954521.338459815 138.589901.338459815 138.589901 3.75575342 144.932374 3.75575342 144.932374 22.7250952 149.602879 22.7250952 149.602879 3.75575342M113.913862 19.3108582L113.919976.338459815 109.240301.338459815 109.240301 22.7250952 122.609927 22.7250952 122.609927 19.3108582 113.913862 19.3108582M59.4725239 18.9960271C59.542826 19.20999 59.7262228 19.2986318 59.961582 19.2986318 60.2091677 19.2986318 60.380338 19.2344429 60.4475835 19.0051969L65.2984287.341516428 69.4279132.341516428 63.9076697 20.7933156C63.5897819 22.0862631 62.767553 22.7342651 61.5021151 22.7342651L57.1922904 22.7342651C55.9237959 22.7342651 55.0282082 22.110716 54.7531131 20.7627495L49.0983786.338459815 54.54832.338459815 59.4725239 18.9960271M6.38220846 19.3016884C5.08926105 19.3016884 4.67050504 18.9838006 4.67050504 17.5838717L4.67661826 5.46134361C4.67661826 4.11643379 4.98839282 3.75269681 6.38832168 3.75269681L13.941213 3.75269681 13.941213.335403202 3.50287878.335403202C1.11260722.335403202.00305661324 1.57027495.00305661324 3.83216875L0 19.2252731C0 21.7194695 1.28072095 22.7250952 3.49065233 22.7250952L13.941213 22.7250952 13.941213 19.304745 6.38220846 19.304745M39.2530273 12.7146868L39.2530273 17.5869284C39.2530273 19.0113101 39.6687267 19.304745 40.9647307 19.304745L49.608833 19.304745 49.608833 22.7250952 38.0762312 22.7250952C35.7348654 22.7250952 34.5825223 21.5941483 34.5825223 19.2252731L34.5825223 3.83522537C34.5825223 1.54276543 35.6615067.338459815 38.0792878.338459815L48.63683.338459815 48.63683 3.75575342 40.9677873 3.75575342C39.5464622 3.75575342 39.2560839 4.16839621 39.2560839 5.46440023L39.2560839 9.29739324 48.5390183 9.29739324 48.5390183 12.7146868 39.2530273 12.7146868M77.6165801 9.90565927C76.6231808 9.90565927 76.0699338 10.4986422 76.0699338 11.464532 76.0699338 11.9535901 76.3175195 12.3020441 76.5131427 12.6535546L82.4124063 22.7250952 88.1955186 22.7250952 82.0181032 13.2771037 83.0665215 13.2709905C85.2306037 13.2709905 86.5602305 12.2806478 86.5602305 9.77116829L86.5571739 3.83522537C86.5571739 1.49691623 85.4537365.338459815 83.0604083.338459815L70.0392359.338459815 70.0392359 22.7220386 74.7097409 22.7220386 74.7097409 3.75575342 80.1719088 3.75575342C81.6176869 3.75575342 81.877499 4.16839621 81.877499 5.46440023L81.8897254 8.19395585C81.8897254 9.51746939 81.5229319 9.90565927 80.1719088 9.90565927L77.6165801 9.90565927M92.6184379 22.7250952C90.4818653 22.7250952 89.124729 21.7683753 89.124729 19.2252731L89.1308422 3.83522537C89.1308422 1.60084108 90.1609209.338459815 92.6276078.338459815L102.922281.338459815C105.333949.338459815 106.412934 1.54276543 106.412934 3.83522537L106.419047 19.2252731C106.419047 21.6736203 105.159722 22.7250952 102.922281 22.7250952L92.6184379 22.7250952zM100.033782 19.3016884C101.302276 19.3016884 101.748542 19.0327064 101.748542 17.5838717L101.745485 5.46134361C101.745485 3.96360312 101.256427 3.75269681 100.033782 3.75269681L95.5130507 3.75269681C93.9602911 3.75269681 93.8013473 4.29066074 93.8013473 5.46134361L93.8013473 17.5838717C93.8013473 18.9287816 94.1650842 19.3016884 95.5130507 19.3016884L100.033782 19.3016884zM128.188246 12.7146868L128.18519 17.5869284C128.18519 19.0113101 128.603946 19.304745 129.89995 19.304745L138.544052 19.304745 138.544052 22.7250952 127.005337 22.7250952C124.670084 22.7250952 123.511628 21.5941483 123.511628 19.2252731L123.517741 3.83522537C123.517741 1.54276543 124.596726.338459815 127.014507.338459815L137.572049.338459815 137.572049 3.75575342 129.89995 3.75575342C128.475568 3.75575342 128.191303 4.16839621 128.191303 5.46440023L128.191303 9.29739324 137.471181 9.29739324 137.471181 12.7146868 128.188246 12.7146868"/>
    </g>
    <path d="M93.8252895,1.63432321 L93.8270319,5.34552622 C93.8270319,6.22367003 94.2451956,6.41358605 94.8811529,6.41358605 L119.890828,6.41010136 C120.50762,6.41010136 121.410156,6.77773696 121.410156,7.82488861 C121.410156,8.22040179 121.293419,8.40857547 121.120926,8.74310644 L113.231571,24.1594089 C112.680989,25.178683 111.889962,25.4679129 110.795767,25.4679129 L94.8811529,25.4731399 C94.1476241,25.4731399 93.8270319,25.7815357 93.8270319,26.5394574 L93.8305166,30.2489181 C93.8305166,31.3901566 93.1806205,31.8640755 92.2049051,31.8640755 L63.5763714,31.8640755 C62.6006561,31.8640755 61.9525023,31.3570519 61.9525023,30.238464 L61.9542447,26.5307457 C61.9542447,25.8198674 61.6789536,25.4626858 60.8966389,25.4626858 L35.5228129,25.4661705 C34.4024826,25.4661705 34,24.6681748 34,24.0513833 C34,23.8161662 34.0609822,23.5861762 34.1637808,23.3875484 L42.1419961,7.79178398 C42.5218281,7.00598466 43.2536147,6.40835901 44.5081058,6.40835901 L60.8966389,6.40313196 C61.5831244,6.40313196 61.9525023,6.11738675 61.9525023,5.33681448 L61.9542447,1.62561146 C61.955987,0.602852696 62.5065693,0 63.5763714,0 L92.2049051,0 C93.2503144,0 93.8252895,0.564521022 93.8252895,1.63432321 Z M89.1427324,6.07502923 C89.1427324,5.31710749 88.7890356,5 88.0764149,5 L68.2484852,5.0034847 C67.513214,5.0034847 67.18391,5.30665339 67.18391,6.06457514 L67.18391,10.3472686 C67.18391,11.1539761 66.7727157,11.4222978 66.1071385,11.4222978 L46.8611532,11.4170708 C46.2861781,11.4170708 46.0474763,11.6035021 45.9028614,11.8648544 L42.0993139,19.3046839 C42.034847,19.4266483 42,19.5590668 42,19.7054241 C42,20.2019936 42.3937708,20.5574327 42.9617766,20.5574327 L66.1071385,20.5574327 C66.8180168,20.5574327 67.1769406,20.8379509 67.1769406,21.6185232 L67.178683,25.8977319 C67.178683,26.7270899 67.5829079,26.9605647 68.2484852,26.9605647 L88.0764149,26.9605647 C88.836079,26.9605647 89.1497018,26.617322 89.1497018,25.908186 L89.1514441,21.6254926 C89.1514441,20.9146142 89.4371893,20.5609174 90.2177616,20.5609174 L109.094369,20.5609174 C109.394053,20.5609174 109.815701,20.5434939 110.054403,20.1113914 L113.859693,12.6698196 C113.924676,12.5468466 113.958761,12.4099084 113.959007,12.2708217 C113.959007,11.8909896 113.720305,11.4135861 112.995488,11.4135861 L90.219504,11.4135861 C89.4824904,11.4135861 89.1427324,11.0895092 89.1427324,10.354238 L89.1427324,6.07502923 Z"/>
  </g>
</svg>
