<svg xmlns="http://www.w3.org/2000/svg" width="217" height="37" viewBox="0 0 217 37">
  <path fill="#ffffff" d="M159.60978,0.648519325 L164.807385,0.648519325 L164.807385,35.6685629 L159.60978,35.6685629 L159.60978,0.648519325 Z M151.596806,0.648519325 L146.399202,0.648519325 L146.399202,35.66496 L157.227545,35.66496 L157.227545,31.3451007 L151.596806,31.3451007 L151.596806,0.648519325 Z M181.266467,0.648519325 L166.53992,0.648519325 L166.53992,5.18455171 L171.304391,5.18455171 L171.304391,35.66496 L176.501996,35.66496 L176.501996,5.18455171 L181.266467,5.18455171 L181.266467,0.648519325 Z M212.235529,0.648519325 L212.235529,21.3975348 L205.95509,0.648519325 L200.107784,0.648519325 L200.107784,35.66496 L204.872255,35.66496 L204.872255,12.9703865 L211.585828,35.66496 L217,35.66496 L217,0.648519325 L212.235529,0.648519325 Z M185.164671,0.648519325 L179.533932,35.6685629 L184.51497,35.6685629 L186.247505,25.2922537 L192.311377,25.2922537 L192.051497,23.4872082 L194.043912,35.6685629 L199.02495,35.6685629 L192.744511,0.648519325 L185.164671,0.648519325 Z M186.897206,20.7526184 L189.062874,5.1881546 L191.607535,20.7526184 L186.897206,20.7526184 L186.897206,20.7526184 Z M134.271457,0 C126.60499,0.0360288514 124.70642,8.19656369 124.742515,18.3747142 C124.70642,28.3402945 126.60499,36.5008293 134.271457,36.5332553 C141.945143,36.5008293 143.847322,28.3402945 143.800399,18.3747142 C143.847322,8.19656369 141.945143,0.0360288514 134.271457,0 Z M134.271457,31.7774469 C130.441833,31.7234036 129.968995,25.6993797 129.94012,18.3747142 C129.968995,10.8374785 130.441833,4.81345455 134.271457,4.75580838 C138.1083,4.81345455 138.581138,10.8374785 138.602794,18.3747142 C138.584747,25.6993797 138.11191,31.7234036 134.271457,31.7774469 Z M94.4231537,0 C86.6772788,0.0360288514 84.7750998,8.19656369 84.6776447,18.3747142 C84.7750998,28.3402945 86.6772788,36.5008293 94.4231537,36.5332553 C102.017432,36.5008293 103.916001,28.3402945 103.952096,18.3747142 C103.919611,8.19656369 102.017432,0.0360288514 94.4231537,0 Z M94.4231537,31.7774469 C90.5105123,31.7234036 90.0376747,25.6993797 90.0918164,18.3747142 C90.0376747,10.8374785 90.5105123,4.81345455 94.4231537,4.75580838 C98.1805888,4.81345455 98.6534265,10.8374785 98.754491,18.3747142 C98.6534265,25.6993797 98.1805888,31.7234036 94.4231537,31.7774469 Z M29.8862275,0 C22.1583999,0.0360288514 20.2562209,8.19656369 20.3572854,18.3747142 C20.2598303,28.3402945 22.1583999,36.5008293 29.889837,36.5332553 C37.4985529,36.5008293 39.4007319,28.3402945 39.4187791,18.3747142 C39.4007319,8.19656369 37.4985529,0.0360288514 29.8862275,0 Z M29.8862275,31.7774469 C25.9916334,31.7234036 25.5187957,25.6993797 25.5548902,18.3747142 C25.5187957,10.8374785 25.9916334,4.81345455 29.8862275,4.75580838 C33.6617099,4.81345455 34.1345476,10.8374785 34.2175649,18.3747142 C34.1345476,25.6993797 33.6617099,31.7234036 29.8862275,31.7774469 Z M9.52894212,4.75580838 C12.510346,4.81345455 13.1167332,8.47038296 13.2105788,13.6189058 L18.4081836,13.6189058 C17.9389554,5.78623353 15.9645875,0.0360288514 9.52894212,0 C1.85525615,0.0360288514 0.0685795077,8.19656369 0,18.3747142 C0.0685795077,28.3402945 1.85525615,36.5008293 9.52894212,36.5332553 C16.2713906,36.5008293 18.1194278,30.1885746 18.4081836,21.8334839 L13.2105788,21.8334839 C13.1889222,27.5260425 12.7233034,31.7234036 9.52894212,31.7774469 C5.68848969,31.7234036 5.33115436,25.6993797 5.41417166,18.3747142 C5.33115436,10.8374785 5.68848969,4.81345455 9.52894212,4.75580838 Z M114.347305,0.648519325 L106.117764,0.648519325 L106.117764,35.6685629 L111.31176,35.6685629 L111.31176,23.1305226 L114.343696,23.1305226 C120.497804,23.0368476 124.045892,18.0288372 124.089205,11.889521 C124.049501,5.67094121 120.501414,0.666533751 114.347305,0.648519325 Z M113.264471,18.5908873 L111.315369,18.5908873 L111.315369,5.18455171 L113.264471,5.18455171 C117.018297,5.11969978 118.570359,8.13171176 118.462076,11.8859181 C118.570359,15.5644638 117.018297,18.5764758 113.264471,18.5908873 Z M71.0339321,23.1305226 L65.8363273,0.648519325 L59.5558882,0.648519325 L59.5558882,35.66496 L64.3203593,35.66496 L64.3203593,11.0248285 L69.9510978,35.66496 L72.3333333,35.66496 L77.9640719,10.3763092 L77.9640719,35.66496 L82.7285429,35.66496 L82.7285429,0.648519325 L76.2315369,0.648519325 L71.0339321,23.1305226 Z M52.8423154,17.7261949 C51.0783251,16.3245882 49.3465443,14.8830604 47.64832,13.4027327 C45.9590985,11.3454853 46.2983866,9.99440338 46.3489188,8.21457812 C46.2983866,6.61489711 47.3162508,4.81345455 48.9477212,4.75580838 C50.6983034,4.81345455 51.9399534,6.39151824 51.7630905,9.07927055 L51.7630905,11.4571747 L56.9606953,11.4571747 C57.014837,8.41633968 57.1267299,0.309848122 48.9477212,0.216173108 C41.674684,0.309848122 40.9961078,7.5156184 40.9347472,9.07927055 C40.9997172,10.444764 40.6604291,14.1593386 44.8329508,17.5100218 L50.2471224,22.049657 C51.8280605,23.840291 52.3911344,25.5300441 52.4127911,27.4539848 C52.3911344,29.3563081 51.8244511,31.8350931 49.5974218,31.7774469 C47.3126414,31.8350931 46.1864937,30.14534 46.132352,26.8054654 L46.132352,23.995215 L40.9347472,23.995215 C40.9347472,23.995215 39.1949933,36.1117177 49.5974218,36.0973062 C55.322006,36.1117177 57.466018,31.1577507 57.393829,27.0180357 C57.4624085,22.8278802 56.5600466,20.576077 52.8423154,17.7261949 L52.8423154,17.7261949 Z"/>
</svg>
