<svg xmlns="http://www.w3.org/2000/svg" width="240" height="51" viewBox="0 0 240 51">
  <g fill="#FFFFFF" fill-rule="evenodd">
    <path d="M208.429029 24.5920258C209.294305 22.7638502 210.102843 21.0553363 210.911575 19.3470157 211.432654 18.2461861 211.953443 17.1453564 212.475489 16.0450101 212.713653 15.5432622 212.498397 14.684849 212.017624 14.2277567 211.701071 13.9268627 211.028433 13.9040516 210.520016 14.1771083 209.845252 14.5394764 209.845252 14.5394764 209.428369 13.8939992 209.393476 13.8398711 209.357519 13.786613 209.323206 13.7320016 208.633653 12.6331051 208.59006 12.8483609 209.664889 12.1022634 210.744648 11.3526863 211.9547 11.0015304 213.279291 11.3068707 214.024422 11.4786307 214.561933 11.9460652 214.946629 12.5991784 215.599356 13.7074507 215.888554 14.9510431 216.260491 16.1613854 217.052791 18.7397181 217.822086 21.3251067 218.601724 23.9073057 218.614869 23.9505115 218.623278 24.0061861 218.749126 23.989271 219.077277 23.091905 219.416931 22.1661216 219.754555 21.239565 220.941216 17.9831816 222.128747 14.7269915 223.311253 11.4690616 223.444736 11.1010874 223.623842 10.9574547 224.034636 11.1280548 224.671414 11.3924124 225.32907 11.6079581 225.983536 11.8270801 226.338172 11.9458719 226.416947 12.1428594 226.285493 12.4879259 225.536786 14.4534515 224.798228 16.42294 224.057833 18.3916553 223.524188 19.810584 222.992477 21.2301893 222.460669 22.6497946 221.841385 24.3028272 221.217463 25.9540234 220.610455 27.6115022 220.524527 27.8460894 220.354893 28.0366975 220.320097 28.3022151 220.297672 28.4734917 220.132872 28.5891905 219.926122 28.5887072 218.943697 28.5863874 217.961079 28.5814579 216.978848 28.5911236 216.647797 28.5943133 216.589706 28.357793 216.51731 28.1285219 215.981152 26.4290938 215.44944 24.7282159 214.914152 23.0284978 214.587644 21.9916553 214.257269 20.9561659 213.893645 19.8098107 213.455014 20.7268949 213.071865 21.5593073 212.661748 22.378091 212.067692 23.564269 211.530568 24.7773178 210.919017 25.9569231 210.547563 26.6736367 210.214869 27.4270801 209.903149 28.1803302 209.780685 28.4761015 209.623907 28.6018526 209.295369 28.59441 208.409988 28.5743053 207.523447 28.5721788 206.63826 28.5954732 206.303053 28.6043657 206.150044 28.4852839 206.05329 28.1733709 204.950914 24.6165767 203.845542 21.0606524 202.723254 17.5100443 202.448264 16.6400322 202.237068 15.7466291 201.848119 14.9147 201.433073 14.0269029 200.811663 13.8054611 199.966975 14.301023 199.595232 14.5191784 199.397954 14.4675634 199.19971 14.1059686 199.015095 13.7689247 198.788917 13.4540153 198.574627 13.1336931 198.424132 12.908675 198.442304 12.7068546 198.65321 12.5413774 199.621909 11.7813613 200.683979 11.2443335 201.944487 11.2014176 203.380814 11.1525091 204.271607 11.9372694 204.848264 13.1534112 205.470544 14.4657269 205.77917 15.8870721 206.208232 17.2654048 206.95317 19.6583488 207.66418 22.0620217 208.429029 24.5920258zM13.4696738 11.321466C13.5068868 11.342054 13.5440999 11.362642 13.5813129 11.38323 13.7599356 11.4588159 13.9373983 11.5361418 14.0527104 11.7045187 14.0862505 11.7274265 14.1196939 11.7504309 14.1531373 11.7734354 14.4565445 11.8722191 14.6638743 12.0877648 14.8411438 12.3397503L14.8480064 12.3457431C14.958389 12.4654048 15.1980024 12.4403705 15.2107612 12.6694482 15.2368586 12.6959323 15.2629561 12.7225131 15.2891502 12.7489972 15.5252839 12.8962062 15.6683367 12.8785179 15.6627306 12.5527829 15.6565445 12.1830689 15.658381 11.8131615 15.6625373 11.4432541 15.6652437 11.1995812 15.6731696 10.954265 15.9238985 10.8115022 16.3397181 10.3934595 16.8364398 10.2810471 17.3724043 10.5031655 17.9473218 10.7414257 18.0643737 11.2555457 18.0640838 11.8179944 18.0627306 14.3783488 18.0679501 16.9387998 18.0625373 19.4990576 18.0570278 22.0911156 18.1033266 24.6852034 18.0163351 27.2747483 17.8907773 31.0120016 15.0742811 35.2163029 10.3596295 35.9056625 7.49557793 36.3244785 4.97031011 35.4893596 2.86559807 33.4717358 2.2762787 32.9068707 2.20678212 32.1947966 2.66426097 31.6282884 3.15412002 31.0215707 3.86406766 30.9616432 4.41617398 31.5102698 5.26105518 32.3500282 6.22134515 32.9954088 7.37562626 33.3166009 10.2391945 34.1132501 13.3608377 32.7419734 14.8058639 30.0633105 15.473089 28.8263874 15.7869352 27.3548772 15.6687233 25.933532 14.8794201 26.7864358 14.0096013 27.4807249 13.0070721 27.9932984 8.3694563 30.3643979 2.59901732 28.1134434.756729762 23.1737737-.789786549 19.0274668.404027386 14.301023 4.09072896 11.7376722 5.60254531 10.6864277 7.29027789 10.1338381 9.12106323 10.0703343 10.152203 10.0346677 11.1462263 10.3173903 12.1223681 10.6370358 12.5043576 10.6724124 12.8292227 10.8259041 13.0929037 11.1062102 13.1205477 11.21176 13.213822 11.1870157 13.2862183 11.2036408 13.3734998 11.2023842 13.453242 11.2127265 13.4696738 11.321466zM9.00246476 12.6293355C8.14231172 12.5963754 7.25963754 12.7970358 6.42393878 13.1999033 2.71732582 14.9871929 1.34392267 19.6743939 3.48981071 23.2038341 5.09422473 25.8427708 8.11263794 27.0766009 10.8295771 26.2044623 14.3954571 25.0596536 16.3691019 21.4682561 15.4631333 17.8357793 14.6844623 14.7139428 11.9082723 12.5529762 9.00246476 12.6293355zM157.907338 28.5070318C156.534708 28.8393395 155.222682 28.2760209 154.478035 26.9241724 153.820862 25.7309384 153.258896 24.4853161 152.657495 23.2613451 152.045558 22.0156263 151.412743 20.7793798 150.840242 19.5157793 150.646251 19.0876843 150.417753 19.172066 150.190608 19.3653806 149.471865 19.9770278 148.649795 20.440886 147.90418 21.0123238 147.866677 21.0411277 147.819025 21.0565928 147.77611 21.0782441 147.605896 21.2181071 147.697817 21.4083286 147.697334 21.5708095 147.689795 23.7048087 147.693564 25.8389046 147.690085 27.9729037 147.689698 28.1459203 147.73503 28.3259928 147.644849 28.4924366 147.523737 28.6544342 147.348498 28.5821345 147.198389 28.5837777 146.490085 28.5920902 145.781683 28.5875473 145.073282 28.5874507 144.343713 28.587354 144.34323 28.5872573 144.343133 27.8342006 144.342843 25.7251389 144.34294 23.6159807 144.34294 21.506919 144.34294 15.7109625 144.34526 9.91490938 144.338397 4.11895288 144.337817 3.69936367 144.438631 3.19500604 143.972936 2.95017318 143.515167 2.70949658 143.087169 2.96834474 142.73205 3.2396617 142.327829 3.54857833 142.105324 3.41364478 141.901667 3.03059203 141.728264 2.7044704 141.540459 2.3859847 141.355264 2.06633911 141.229513 1.84953685 141.184277 1.63524768 141.415965 1.46725735 142.678502.551913008 144.012469-.139379783 145.65052.172339911 146.716263.375126863 147.543166 1.28177205 147.652582 2.36182038 147.726911 2.53213049 147.690568 2.71171969 147.690665 2.88666935 147.692888 7.63795409 147.691438 12.3892388 147.696754 17.1405236 147.696947 17.3059041 147.613532 17.4949658 147.772243 17.6405316 149.019219 16.7463552 150.26919 15.8561418 151.512686 14.9570358 153.354587 13.6251953 155.191365 12.2863955 157.03143 10.9521385 157.551349 10.5751752 157.629932 10.5906404 157.965816 11.1297946 158.286814 11.6453645 158.594184 12.1695369 158.924462 12.6790173 159.11855 12.9784615 159.105985 13.2166251 158.794362 13.4115828 157.463101 14.2439952 156.243383 15.2409182 154.894917 16.049553 154.476005 16.3007652 154.112284 16.642352 153.701297 16.9087394 153.38977 17.1107531 153.608409 17.3677648 153.680805 17.4881031 154.104454 18.1918647 154.472622 18.9229803 154.840693 19.6551591 155.607475 21.1802175 156.443367 22.6696093 157.153121 24.2252114 157.317632 24.5857431 157.5383 24.9507209 157.77917 25.2862183 158.115054 25.7544261 158.511929 25.8489569 159.027982 25.5734837 159.070511 25.5508659 159.111977 25.526025 159.15325 25.5009907 160.039984 24.9620298 160.039984 24.9620298 160.633266 25.8469271 160.722867 25.9805075 160.827064 26.1062586 160.90033 26.2480548 161.046573 26.5314539 161.118872 26.8578655 160.8665 27.0891663 160.159549 27.73706 159.35971 28.2344583 158.394104 28.4089247 158.243802 28.5014257 158.046138 28.357503 157.907338 28.5070318zM64.8924043 13.2790656C64.5251021 13.4073943 64.2055247 13.6121406 63.9270076 13.8823904 63.9269378 13.8824259 63.926868 13.8824614 63.9267982 13.882497L63.9258698 13.8828683C63.9258571 13.8828412 63.9258444 13.8828141 63.9258317 13.882787 62.9727707 14.5119754 62.3205556 15.3892432 61.8412429 16.4090662 61.84114 16.409148 61.8410372 16.4092297 61.8409344 16.4093113 60.8837374 18.4631816 60.8924366 20.5218848 61.8166734 22.5821345 63.3402819 25.9782843 67.5397503 27.4570439 70.7297302 25.666178 75.4483447 23.0170922 75.2552235 16.8075393 71.5685219 13.8904229 69.5641402 12.3044704 66.8342489 12.1915747 64.8924043 13.2790656zM74.3189046 25.9945228C73.4967378 26.8261619 72.6724446 27.4687394 71.7216271 27.9430366 67.2818687 30.157648 62.0978494 28.3961659 59.7911236 23.882948 57.2179138 18.8483609 59.5532501 12.623536 64.8206847 10.566766 67.529118 9.50923882 70.0307048 10.04588 72.3446798 11.7160209 73.0243737 12.2065566 73.6336045 12.7737414 74.2293999 13.3719533 74.3946839 13.2437857 74.3148449 13.0705759 74.3152316 12.9270399 74.321031 10.4795812 74.3175513 8.03192912 74.321321 5.5844704 74.3217076 5.36080548 74.3352396 5.13259766 74.3806685 4.91434555 74.5062263 4.31236408 74.9936689 3.9922352 75.6788723 4.03921063 76.1952155 4.07458719 76.6548208 4.5414418 76.6927104 5.08272251 76.7073057 5.29101893 76.6960934 5.50124849 76.6960934 5.71051148 76.6962867 13.0049456 76.6968667 20.2992831 76.6962867 27.593524 76.6961901 28.5403786 76.0167861 29.1121063 75.1782843 28.8770358 74.6635844 28.7328232 74.3364962 28.2679984 74.3212243 27.6268707 74.3094321 27.1287958 74.3189046 26.6300443 74.3189046 25.9945228zM167.564366 19.3369634C167.567072 22.2350383 167.566395 25.1332098 167.576255 28.0312847 167.577704 28.4481675 167.396472 28.6012727 166.992058 28.5923802 166.267902 28.5763351 165.543069 28.5883206 164.818526 28.5872573 164.235683 28.5863874 164.188901 28.5436649 164.188321 27.9535723 164.186387 25.7960854 164.188127 23.6384052 164.188224 21.4808216 164.188417 19.3392831 164.189384 17.1977447 164.186677 15.0563029 164.186387 14.8478131 164.188224 14.6341039 164.145791 14.4318969 164.056963 14.0078615 163.790383 13.8476037 163.365091 13.9213532 163.009875 13.9829239 162.675634 14.1416351 162.406154 14.3428756 162.105646 14.5672171 161.965203 14.4390495 161.83172 14.2263069 161.593846 13.8471204 161.394056 13.4443496 161.163335 13.0603302 161.039903 12.8548369 161.067451 12.6818204 161.247523 12.5535562 162.233814 11.8508578 163.248329 11.2029642 164.519855 11.1904954 166.063472 11.1755135 166.774482 11.6817076 167.303391 13.1700362 167.604285 13.0027225 167.757004 12.6956424 167.992557 12.4765203 169.792606 10.8016432 171.934724 10.5279098 174.241063 10.93764 175.2983 11.125445 176.249891 11.55441 177.039195 12.3005075 178.246927 13.4421265 178.711559 14.9142167 178.744615 16.5071285 178.803286 19.3397664 178.778349 22.1741442 178.783858 25.0077487 178.784535 25.3814257 178.745002 25.8608458 179.066097 26.019557 179.387483 26.1784615 179.802433 25.9519936 180.13677 25.7398308 180.783021 25.3297141 180.862666 25.3489489 181.263794 25.9666855 181.333677 26.074265 181.390415 26.190447 181.461071 26.2974466 182.059476 27.2024487 181.826049 27.369859 181.042352 27.8925816 180.309497 28.3813774 179.495256 28.6925171 178.614998 28.7604672 176.457511 28.9272976 175.30613 27.8691905 175.292888 25.6996214 175.276939 23.091325 175.287765 20.4827386 175.289408 17.8743455 175.289698 17.341474 175.236633 16.8164317 175.13466 16.292646 174.890407 15.0370681 174.229368 14.1591301 172.952332 13.8197664 172.384664 13.7049376 171.816996 13.7061941 171.249231 13.8190898 169.007265 14.3553443 168.159291 16.0377608 167.746371 18.0782924 167.72762 18.17118 167.700942 18.2624245 167.677938 18.3543455 167.503568 18.6662586 167.684414 19.0190576 167.564366 19.3369634zM181.856593 18.3368506C182.217704 14.1806847 184.995344 11.0635844 189.25851 10.8006766 190.922658 10.6980266 192.54737 10.8673701 194.036665 11.6730085 196.226242 12.8575433 197.509561 14.7376238 198.016528 17.1438099 198.549497 19.6725574 198.478647 22.178977 197.370085 24.5562626 196.099331 27.2812243 193.878244 28.7106887 190.912026 28.9556182 188.7759 29.1318244 186.737592 28.7881112 184.979106 27.4476681 183.001498 25.9401047 182.08944 23.8653564 181.855433 21.4441885 181.789706 20.4083125 181.787 19.3725332 181.856593 18.3368506zM190.830737 13.6135965C190.297479 13.5245751 189.764124 13.5261216 189.230673 13.6124366 187.646557 13.9494805 186.591156 14.9252356 185.961337 16.3775111 185.270044 17.9716794 185.193395 19.6476198 185.397439 21.3470479 185.506855 22.258236 185.760677 23.1458397 186.214869 23.9325332 186.904712 25.1271204 187.938268 25.9167137 189.332936 26.1639629 189.80182 26.2472815 190.270318 26.2571406 190.738333 26.1576802 192.748901 25.7653484 193.836875 24.4082803 194.386081 22.5612565 194.879323 20.9020379 194.911704 19.2072493 194.469883 17.5240596 193.958373 15.5755457 192.936029 14.0865405 190.830737 13.6135965zM110.911994 15.2559001C111.357004 16.3347886 111.719178 17.434555 111.836134 18.6063311 111.87151 18.9607733 111.892002 19.3139589 111.87151 19.6654048 111.83768 20.2437052 111.323077 20.6607813 110.6718 20.6612646 108.143633 20.6632944 105.615465 20.6618445 103.087201 20.6617479 100.977753 20.6616512 98.8683045 20.6686106 96.7587596 20.6542086 96.4457833 20.6520822 96.3549255 20.74236 96.4291583 21.0330085 97.0600403 23.5040516 98.4896979 25.2967539 100.949819 26.0992026 103.395248 26.896915 105.576899 26.2999597 107.402271 24.5220459 108.025711 23.9147483 109.234023 23.9349497 109.518679 25.0506645 109.625969 25.4714136 109.51317 25.8425775 109.246299 26.1739186 108.098687 27.5983568 106.609005 28.4318325 104.812437 28.7271204 102.702698 29.0740234 100.658687 28.9137656 98.749996 27.867354 96.1540717 26.4441724 94.600886 24.2573983 94.0933387 21.3472412 93.49764 17.9306967 94.3663955 14.9407974 96.8907934 12.5308417 98.7371406 10.7683931 101.001627 9.90737012 103.553089 10.0587354 105.938204 10.200145 107.870479 11.3596456 109.445896 13.1200644 109.827499 13.5465163 110.141925 14.033089 110.487185 14.4920177 110.764108 14.6715103 110.790785 14.9898993 110.911994 15.2559001zM100.288876 13.1526379C100.235038 13.2240677 100.188159 13.3071929 100.075264 13.2772292 100.0164 13.3010068 99.9574386 13.3248812 99.8985743 13.3487555 99.833234 13.6310914 99.5879178 13.6344744 99.3744019 13.687346 97.8671285 14.6274346 97.0109384 16.0279017 96.5232058 17.6956263 96.4163029 18.0611841 96.4430769 18.1935079 96.8987193 18.1908014 100.635779 18.1684736 104.373129 18.178236 108.110383 18.178236 109.486685 18.178236 109.489682 18.1770761 108.986484 16.885445 107.66228 13.4859122 103.736834 11.5111075 100.288876 13.1526379zM24.3096899 27.4466049C23.574998 26.9653484 22.9363834 26.3733226 22.3871768 25.6942086 20.4381796 23.2843496 19.8877165 20.5343536 20.4378896 17.5243496 20.4578977 17.4144503 20.4528715 17.2999114 20.4595409 17.1875957 20.5084495 17.0610713 20.4559646 16.9123157 20.5456625 16.7947805 20.6792429 16.721031 20.5532018 16.5744986 20.6324607 16.4855739 20.6718969 16.165735 20.7246718 15.8517922 21.0008216 15.6343133 22.1060008 13.2108256 23.8724124 11.4894563 26.3968103 10.5891905 29.8913572 9.34279501 32.9012646 10.2327185 35.4474104 12.7902698 37.3183085 14.6693838 38.2121949 17.0015304 38.1984696 19.6587354 38.1782682 23.5951994 35.6105679 27.2244865 31.9054048 28.4583166 29.7241402 29.1846959 27.5518647 29.0281112 25.4497624 28.0693677 25.3928313 28.0433669 25.3307773 28.0288683 25.2709464 28.0089569 25.1580507 27.9184857 24.9823278 27.9477729 24.8938864 27.8108095L24.8935965 27.8106162C24.6377447 27.7874184 24.4483931 27.657801 24.3096899 27.4466049zM35.8218607 19.78294C35.7970197 18.4690777 35.5843737 17.4630689 35.1493194 16.5002658 33.411905 12.6538864 28.5908337 11.2507128 25.1671365 14.0240032 22.2592026 16.3795409 21.7570681 21.0070077 24.1296174 23.9175513 26.0765848 26.3062424 29.0631977 27.1136206 31.7602255 25.8736045 34.4439146 24.6397745 35.6654692 22.4072815 35.8218607 19.78294zM51.1873701 13.2041563C49.1215143 12.0836085 46.2435441 12.4608619 44.4167217 14.0918566 44.4459122 14.3921708 44.1480145 14.3434555 44.0136609 14.4693033 43.9630125 14.5072896 43.9069513 14.5396698 43.8624889 14.5838421 41.9434555 16.4930165 41.3784938 19.6395006 42.4748772 22.3055981 44.1125413 26.2880709 48.8598631 27.6631172 52.3099476 25.1542811 55.0878776 23.1342408 55.9300524 19.0639066 54.1944744 16.0091502 53.6602497 15.0690616 53.0100362 14.2298832 52.0310914 13.7031011 51.8076198 13.4391301 51.5042126 13.3102859 51.1873701 13.2041563zM43.2615707 27.2217801C41.8293999 26.0797745 40.7235441 24.6942892 40.1103504 22.950592 38.256464 17.6783246 40.8542247 11.6704954 46.7384293 10.2795006 50.1484011 9.47347563 52.9226581 10.703536 55.1576641 13.2467821 56.9365445 15.270882 57.6806122 17.6938864 57.4516311 20.3706162 57.1324688 24.1006202 54.510737 27.8877487 50.0971728 28.7502215 48.6132904 29.0401933 47.1267982 28.9246879 45.6801289 28.4455578 45.5907209 28.415884 45.4954168 28.4041885 45.4028192 28.3840838 45.12029 28.3012485 44.7823762 28.340298 44.6067499 28.022199L44.5702135 27.9990012 44.5270077 28.0004511C44.2606202 27.9458397 44.012791 27.8563351 43.8352316 27.6340234 43.6770036 27.6502618 43.700588 27.4235038 43.5543455 27.4238905 43.4595248 27.3525574 43.3283609 27.3338059 43.2615707 27.2217801zM232.581941 10.8886347C233.819734 10.6775352 235.047185 10.7676198 236.264487 11.0341039 237.233089 11.2460733 238.132098 11.6512606 239.025598 12.0696899 239.350463 12.2218284 239.443157 12.4161095 239.28058 12.758083 239.046283 13.2506484 238.843206 13.7584857 238.638486 14.2644865 238.483254 14.6483125 238.295546 14.694418 237.897898 14.5113492 236.188901 13.7243657 234.41234 13.2606041 232.517277 13.7017479 231.336029 13.9768345 230.798518 14.6233749 230.763335 15.6656303 230.743327 16.257946 231.054853 16.6750222 231.535143 16.985582 232.723157 17.7534273 234.103907 17.9687797 235.428981 18.3417801 236.524301 18.6500201 237.56472 19.087201 238.451937 19.8022714 239.496706 20.6443496 239.885654 21.8215385 239.933983 23.118679 240.00145 24.9266532 239.468868 26.5033266 237.996778 27.6464921 236.701087 28.6526943 235.181442 28.9811357 233.571132 28.9919613 231.490101 29.0059766 229.522932 28.5591301 227.676295 27.5870479 227.426919 27.4557874 227.322819 27.2829642 227.323206 27.0186065 227.324559 26.293967 227.313153 25.5690375 227.327362 24.8446879 227.336641 24.3720338 227.510141 24.2887153 227.941812 24.5000081 229.192364 25.1118486 230.407346 25.81706 231.816899 26.0230366 232.957358 26.1896738 234.092694 26.2593637 235.183858 25.7698913 236.045268 25.3834555 236.558325 24.7547966 236.583745 23.7744986 236.60965 22.7778655 236.046428 22.2012082 235.211792 21.819122 234.242706 21.3754652 233.194652 21.1739348 232.18439 20.856319 231.357584 20.5965042 230.524205 20.345002 229.772984 19.9065646 227.886911 18.805735 227.187886 17.2191059 227.569392 15.0620056 227.976126 12.7624325 229.987853 11.3061941 232.08261 10.9870318 232.236971 10.8923077 232.435892 11.0246315 232.581941 10.8886347zM134.56683 10.0141764C136.213774 10.0026742 137.742988 10.3316955 139.075602 11.3087072 139.684736 11.7551671 140.12414 12.3411035 140.330117 13.0822714 140.508449 13.7234958 140.252211 14.3133951 139.683866 14.57118 139.069126 14.8501329 138.484446 14.7187757 138.181426 14.0777447 137.697173 13.053081 136.834603 12.6769875 135.826178 12.4811599 134.751832 12.2725735 133.678357 12.312203 132.643351 12.6599758 131.548804 13.0278534 131.002207 13.8691583 131.011003 14.9939589 131.016319 15.6695932 131.428949 16.0789368 131.922867 16.4295127 132.800129 17.0520822 133.84712 17.1719372 134.860959 17.3768506 136.618864 17.7321627 138.310753 18.2395167 139.68261 19.470447 140.909867 20.57176 141.410358 21.9468063 141.299783 23.6006122 141.119517 26.2983166 138.921917 28.3173903 136.170665 28.7795087 134.050971 29.1354974 132.054225 28.8680467 130.252147 27.6191381 129.243528 26.9202094 128.559388 25.9749013 128.183681 24.8090213 127.840548 23.7449215 128.455481 22.8884414 129.496673 22.9848087 130.020362 23.033234 130.374321 23.3875795 130.513218 23.8334595 131.094031 25.6989448 133.452275 26.6066532 135.166299 26.4016432 136.141377 26.2849778 137.036134 26.0254531 137.834909 25.4453161 139.046412 24.565445 139.562561 22.3884333 137.855981 21.1127507 136.809472 20.3305034 135.613339 19.9886267 134.349448 19.789996 132.81917 19.5496093 131.354716 19.1153282 130.101845 18.1534917 128.822102 17.1712606 128.479259 15.8121627 128.645123 14.293387 128.942441 11.5701651 131.075763 10.443818 133.056754 10.1191462 133.568264 10.0355377 134.080451 10.0473298 134.56683 10.0141764zM117.296593 16.5899638C118.106677 17.0914217 119.038453 17.1918486 119.941039 17.3739509 121.601418 17.7092549 123.18882 18.198534 124.548691 19.2677567 127.269303 21.4068788 126.853 25.4963512 124.35789 27.4242771 122.840854 28.5964398 121.101796 28.9996939 119.214273 28.90265 117.382231 28.8084092 115.775594 28.1987918 114.48087 26.8708176 113.877632 26.2521144 113.465002 25.5107531 113.240854 24.6761176 113.034297 23.907209 113.342441 23.269271 114.002416 23.0337173 114.657849 22.7998067 115.334064 23.1108498 115.622006 23.8631333 116.098139 25.107209 117.013097 25.834555 118.247797 26.1895771 119.966073 26.6835924 121.586242 26.4624406 123.019186 25.3549416 124.259783 24.3961015 124.503842 22.2912928 122.996279 21.1490938 121.940878 20.3495449 120.736432 19.9921063 119.458816 19.7926057 118.091212 19.5789932 116.787112 19.186178 115.596488 18.4481998 113.923157 17.4109706 113.479307 15.7800725 113.781071 14.0760048 114.162094 11.9237374 115.535207 10.652211 117.709513 10.2214096 119.662569 9.83449054 121.568554 9.92099879 123.377882 10.8186549 124.372195 11.3119936 125.168941 12.0188482 125.423536 13.1645268 125.578961 13.8643254 125.31267 14.3469352 124.690294 14.592348 124.07942 14.8332179 123.548578 14.6965445 123.246138 14.0487475 122.782086 13.0550141 121.955377 12.696319 120.978462 12.5026178 119.822151 12.2732501 118.677342 12.2948047 117.575352 12.7313089 116.552912 13.1363029 116.063439 13.9552799 116.111671 15.0329118 116.129843 15.4378091 116.261973 15.7799758 116.585389 16.0362143 116.884253 16.1413774 117.042191 16.4276762 117.296593 16.5899638zM81.3380588 11.6013854C82.4357954 10.7456786 83.5456142 10.1639952 84.8694321 10.0147563 87.1692952 9.75532823 89.0714136 10.5268466 90.5878695 12.2185421 91.7740475 13.5417801 92.3502215 15.1385582 92.3532179 16.9234313 92.359114 20.4657269 92.3556343 24.0082159 92.3544744 27.5506081 92.3541845 28.3739348 91.8478937 28.9533951 91.1500282 28.9380266 90.4549658 28.9227547 89.9563109 28.3403947 89.9556343 27.5211277 89.9524446 24.0431091 89.9509948 20.5650906 89.9549577 17.0871687 89.9569875 15.3617398 89.2566089 13.9998389 87.788965 13.1019895 85.1928474 11.5137173 81.8940314 13.210439 81.4311398 16.1902859 81.3489811 16.7188079 81.3386387 17.2459766 81.3387354 17.7767217 81.3396053 21.0452839 81.3186307 24.3143294 81.3541039 27.582505 81.3624164 28.3434877 80.8848329 28.9100926 80.1762384 28.9363834 79.504857 28.961321 79.0295932 28.4278695 78.9995328 27.6316069 78.9794281 27.1010552 78.9942167 26.5692469 78.9942167 26.0379219 78.9943133 21.1912364 78.9953766 16.3446476 78.9934434 11.4979621 78.9932501 11.0063633 79.0118083 10.5328393 79.4610713 10.2003383 79.8463472 9.91519936 80.2607169 9.85594845 80.6790495 10.0682078 81.0685783 10.2658719 81.3354491 10.5816512 81.3378655 11.0552718 81.3387354 11.2125332 81.3380588 11.3698913 81.3380588 11.6013854zM125.721434 47.3178896C129.380975 48.9099315 131.055948 48.421909 131.38671 45.5301168 130.381474 45.7907048 129.511269 46.3757712 128.467467 46.2428675 126.247249 45.9603383 124.781925 44.4711398 124.671832 42.2660975 124.534096 39.5118486 126.159968 37.3354168 128.681853 36.8992026 131.252066 36.4548691 133.225614 37.425888 133.795312 39.7052598 134.413725 42.1780427 134.3971 44.7701007 133.862876 47.2333145 133.231317 50.1473379 129.455401 51.5546677 126.807282 50.1096416 125.745598 49.5300846 125.343794 48.6862666 125.721434 47.3178896zM131.410777 41.0008538C131.352976 40.1632219 130.888055 39.1215465 129.501506 39.1908498 128.13052 39.2591865 127.425695 40.2574627 127.380556 41.5995489 127.334064 42.9820379 128.023907 44.0078615 129.443609 43.9192267 130.809472 43.8341683 131.424406 42.7732582 131.410777 41.0008538zM164.118824 37.6250987C164.118824 36.6974789 164.075425 35.9474184 164.132453 35.2052839 164.177688 34.6202175 163.77946 33.750882 164.898752 33.6918244 165.740346 33.6469754 166.540765 33.9453564 166.571502 34.8136287 166.689521 38.1689891 167.188659 41.5898832 166.298252 44.8622151 165.468933 47.9117519 160.814982 48.5573258 158.438856 46.1315183 156.700669 44.3566009 156.455062 40.7868546 157.92203 38.6181555 159.18998 36.7430044 161.101281 36.3953282 164.118824 37.6250987zM159.629384 41.5587596C159.626774 43.8749577 160.720934 45.4469915 162.093854 45.3148611 163.732388 45.1570197 163.995586 43.8254692 164.078905 42.5426339 164.206589 40.5894805 163.125381 39.0232461 161.728973 39.099122 159.961498 39.1956826 159.682062 40.5078051 159.629384 41.5587596zM135.377012 42.2237616C135.39586 38.8513894 137.389223 36.7609827 140.526911 36.82236 143.376851 36.8786146 145.359291 39.0675151 145.329907 42.127201 145.299267 45.3715022 143.102731 47.6797745 140.124623 47.5973258 137.299331 47.5187435 135.359517 45.322787 135.377012 42.2237616zM142.588804 42.278083C142.464696 40.7847282 142.190093 39.2600564 140.347612 39.2128876 138.476134 39.164559 138.084575 40.6328796 138.106806 42.167507 138.129231 43.6990415 138.539734 45.1013451 140.423004 45.0968989 142.233105 45.0925493 142.464696 43.686766 142.588804 42.278083zM146.1629 42.078389C146.239549 38.8705276 148.304921 36.7689086 151.327781 36.82323 154.191736 36.8749416 156.158711 39.0789207 156.109803 42.1820056 156.058864 45.4047523 154.017656 47.5923963 151.057237 47.5972292 148.137414 47.601772 146.086444 45.2893435 146.1629 42.078389zM148.907193 41.9829883C148.951945 43.4917116 149.155409 44.9811035 151.042159 45.0910995 152.964962 45.2035119 153.384261 43.7486267 153.384261 42.2337173 153.383874 40.7228675 152.91412 39.2477809 151.108369 39.2070882 149.396182 39.1680387 148.950592 40.505292 148.907193 41.9829883zM113.366315 43.2525816C114.911865 45.6061861 115.600451 45.7381232 119.163238 44.6540153 119.626806 45.7538784 119.192622 46.5395087 118.257559 47.084269 116.476843 48.1223681 113.598872 47.6053484 112.052839 46.0118566 110.462054 44.3719694 110.162996 41.2449134 111.395377 39.1303423 112.446621 37.3255578 114.701925 36.4141764 116.815916 36.9400886 118.706629 37.4097463 119.993524 39.2409182 119.718921 41.1378172 119.425566 43.1697463 117.792638 43.1303101 116.310302 43.240886 115.435167 43.3057431 114.551333 43.2525816 113.366315 43.2525816zM115.160564 41.4443174C115.941265 41.2522594 117.15789 41.6176238 117.173741 40.305888 117.185147 39.3237535 116.292227 39.0363915 115.383359 39.0803705 114.362755 39.129859 113.583794 39.6831253 113.510624 40.6518244 113.410681 41.9737092 114.582553 41.1245751 115.160564 41.4443174zM187.345856 44.57147C187.626452 45.9240918 187.136593 46.6739589 186.170793 47.1515425 184.335369 48.0595409 181.694209 47.5652356 180.161224 46.0494563 178.490697 44.3982602 178.146307 41.7482078 179.320016 39.421474 180.361692 37.3557149 182.12269 36.6361015 184.326089 36.864116 185.864197 37.0232139 186.951011 37.8759243 187.541877 39.2943697 188.406283 41.3689247 187.585759 42.8219734 185.360419 43.1623037 184.7017 43.2632139 184.01031 43.1610471 183.356037 43.2769392 182.795522 43.3763029 181.836681 42.798389 181.760419 43.8256625 181.706097 44.5559082 182.510866 44.8278051 183.137592 45.1009585 184.602433 45.7398631 185.887008 44.9374144 187.345856 44.57147zM181.405107 41.5008619C182.748353 41.0097463 184.346677 42.1899315 185.224325 40.511768 185.5836 39.8254048 184.858091 39.2824809 184.151913 39.1468707 182.519952 38.8346677 181.644527 39.5820217 181.405107 41.5008619zM52.3721949 37.8216029C53.6871204 36.4596053 54.9809746 36.757503 55.4616512 38.6057833 55.8910028 40.2561095 56.2928071 41.9017962 57.3077084 43.6183327 58.347064 41.9617237 58.6133548 40.2303021 59.0130326 38.5736931 59.2339911 37.6556424 59.2348611 36.7057914 60.5599356 36.9969231 61.7164398 37.2509384 61.8677084 38.0316391 61.5665244 39.0505034 60.5718244 42.4144664 59.4389046 45.7241079 57.6332501 48.7534434 56.8002578 50.1512042 55.6276118 50.958679 53.8989932 50.4433025 53.2586387 50.252501 52.8999436 49.7853564 52.8486186 49.1398792 52.7837616 48.3201289 53.4972855 48.4493596 53.9503182 48.373677 55.8670318 48.0508417 56.3196778 47.029851 55.3770761 45.3942167 53.9950705 42.9965364 53.4793073 40.2595892 52.3287958 37.7736609L52.3721949 37.8216029zM66.524269 39.9470963C66.5326782 37.6474265 67.905888 37.0729923 69.5782521 36.8969795 72.0282239 36.6390012 73.7439871 37.4974144 74.2808216 39.3688925 74.7992912 41.17764 74.8268385 43.0600403 74.4015465 44.9000081 74.0111478 46.5877406 72.7401047 47.3333548 71.1234152 47.4412243 69.2966895 47.5633025 67.4611679 47.4639388 66.4085703 45.6184615 65.5028917 44.0307692 66.2940314 42.0896013 68.0716553 41.4294321 68.6935481 41.1988079 69.3699557 41.0970278 70.0308981 40.9961176 70.614708 40.9075795 71.2107934 40.90236 71.8111317 40.8598308 71.2641482 38.7474829 70.2658719 38.5623842 66.524269 39.9470963zM70.8237777 42.8276762C70.11412 43.0876843 68.9365445 42.8066049 68.8567056 44.0755215 68.7961015 45.038228 69.6014499 45.305292 70.3597261 45.3350624 71.4189932 45.377205 71.9965203 44.766621 72.0561579 43.7064841 72.1040032 42.8559968 71.5628192 42.7448409 70.8237777 42.8276762zM177.469996 43.8355215C177.469996 44.4334434 177.513395 45.0354249 177.458107 45.6284172 177.39673 46.2854934 177.821345 47.2622151 176.573113 47.2775836 175.621329 47.2892791 174.937092 46.8130487 174.853 45.8665807 174.727056 44.4574144 174.740685 43.035006 174.721836 41.6179138 174.703472 40.271768 174.299058 39.1460008 172.748675 39.1948127 171.296883 39.2399517 171.029335 40.4074748 171.012227 41.6092147 170.993379 42.9542006 171.051277 44.3025695 170.98555 45.6446557 170.956939 46.2214096 171.404366 47.1174225 170.342102 47.2600886 169.429851 47.3827467 168.542634 47.0052034 168.460475 46.0757471 168.251792 43.7130568 167.814031 41.2618284 168.902199 39.0211196 169.838905 37.0907773 171.665244 36.6332984 173.667982 36.8657592 175.57706 37.0877809 176.867048 38.1355457 177.230189 40.0447201 177.46526 41.2820298 177.45772 42.565735 177.559114 43.8284656 177.529247 43.8306887 177.499283 43.8330085 177.469996 43.8355215zM196.346097 39.957052C194.994346 39.3350624 193.793089 38.9486267 192.488699 39.1902698 191.939976 39.2922433 191.444897 39.5724527 191.497479 40.1951188 191.539235 40.6925171 192.008796 40.8494885 192.47768 40.940733 193.208119 41.0824325 193.957116 41.1960048 194.648796 41.4535965 196.608425 42.1838421 197.247523 44.3126218 196.068981 46.0240354 194.850616 47.7934434 191.123319 48.1516553 189.613822 46.6472815 189.102795 46.1384776 188.732211 45.4845912 189.061039 44.842787 189.416061 44.1516875 189.949126 44.8655981 190.407668 44.9270721 190.554974 44.9467902 190.6988 45.0047845 190.845816 45.0121305 191.89619 45.0644221 193.468031 45.7634474 193.734321 44.3842449 194.016271 42.9231736 192.291905 43.3416029 191.392606 43.0818848 190.034764 42.6902296 188.77996 42.2017237 188.725928 40.5319694 188.674217 38.9447604 189.504599 37.8800805 190.93735 37.2367298 193.776464 35.9623037 196.119243 37.035586 196.346097 39.957052zM197.870093 44.4711398C199.249875 44.9579058 200.441949 45.3490777 201.715215 45.1055981 202.177044 45.01706 202.59383 44.8055739 202.641579 44.2925171 202.69242 43.7481434 202.243351 43.4941281 201.823665 43.3735965 200.968731 43.1284736 200.056093 43.0578172 199.227644 42.7516069 197.522416 42.1216915 196.990801 40.5899638 197.817028 38.9613854 198.701635 37.2184615 201.129762 36.2943214 203.253806 36.9710189 204.595022 37.3987273 205.436617 38.2188643 204.957777 39.8611679 203.826597 39.3999195 202.728474 38.9796536 201.517841 39.1533468 200.91354 39.240145 200.248538 39.349851 200.206975 40.0902457 200.169762 40.7598872 200.792525 40.8349899 201.308675 40.9446959 201.963915 41.0835924 202.620991 41.2226822 203.266081 41.4015948 204.554233 41.7586468 205.352042 42.6293355 205.403754 43.9489005 205.456915 45.2950463 204.884124 46.4121144 203.613951 47.0555618 200.930745 48.414853 198.054418 47.2644382 197.870093 44.4711398zM98.4475554 40.5272332C98.4874748 39.1195167 98.1150544 37.68 98.5746597 36.2997342 98.8465566 35.4839468 99.3816512 34.7645268 100.308884 34.7768023 101.234281 34.7887878 100.854515 35.646621 100.951849 36.1659605 101.198808 37.4834958 102.24261 36.777801 102.932066 36.953524 103.503987 37.0991865 104.364043 36.6233427 104.454805 37.7302618 104.540346 38.7674909 103.977704 39.4065888 103.046605 39.3442449 99.6908578 39.1210632 101.164495 41.6093113 100.990898 43.0353927 100.781248 44.7547322 101.89648 45.2289327 103.426855 44.9779138 103.999646 44.8841563 104.469883 44.8785501 104.462827 45.678969 104.456738 46.4428514 104.12907 46.9296174 103.428111 47.2314781 101.311027 48.1428594 98.7694241 46.8402094 98.4781957 44.5530085 98.3094321 43.2316069 98.4475554 41.8706726 98.4475554 40.5272332zM91.2994603 40.6443818C91.2907612 39.1637857 90.9302296 37.6452034 91.4841724 36.2040435 91.762642 35.4781474 92.2814982 34.8470721 93.0840435 34.8004833 94.0814499 34.7430689 93.6770358 35.6272896 93.7546516 36.1285542 93.9643012 37.481176 95.0090697 36.798389 95.6971728 36.9549738 96.3402336 37.1015062 97.3041965 36.6053645 97.3387998 37.8605558 97.3648006 38.7873057 96.8406283 39.1658155 96.0108256 39.3606766 95.2690777 39.534853 94.048973 38.9295852 93.8656142 39.9719372 93.6134354 41.4053645 93.4752155 42.9580669 94.1726943 44.3672332 94.5317761 45.092646 95.2568023 45.0145469 95.9388159 45.0346516 96.441917 45.0496335 97.2291905 44.5409263 97.3168586 45.56588 97.3878051 46.395586 97.0124849 46.9614176 96.1834555 47.2662747 93.9624648 48.082352 91.6501329 46.8157551 91.3287475 44.4401128 91.1607571 43.1965203 91.2994603 41.9109787 91.2994603 40.6443818zM43.1604672 47.4495369C40.8254209 47.4969956 39.4188643 46.3588562 39.3122513 44.190737 39.1991623 41.8868143 39.2775513 39.5737092 39.2728151 37.2646637 39.2706887 36.2908417 39.7035199 35.5423278 40.5034555 35.0216351 41.0973178 34.6348127 41.7867741 34.5800081 41.7700524 35.4714781 41.7446315 36.8591865 42.4402739 37.0289166 43.5722271 36.9909303 44.2760854 36.966766 45.3942167 36.5355779 45.3835844 37.9176802 45.3752718 39.0864599 44.5282642 39.4149013 43.5445832 39.3754652 40.7831816 39.264116 42.0155618 41.344857 41.887201 42.534418 41.7490777 43.8154168 41.9143617 45.1535401 43.8314619 45.0539831 44.3626903 45.0263391 45.2990093 44.4486186 45.3559404 45.6153685 45.4002094 46.5307128 44.894112 47.1614015 43.9279259 47.3197261 43.6345711 47.3678615 43.3412163 47.4187032 43.1604672 47.4495369zM79.9425211 39.5522513C79.9425211 38.2070721 79.8924527 36.8589932 79.9626259 35.5171969 79.9994523 34.8137253 79.4924849 33.7264277 80.890729 33.6791623 82.1455336 33.6369231 82.6511478 34.4154007 82.6774386 35.5080145 82.7339831 37.8982521 82.7151349 40.2907128 82.7190979 42.6821104 82.7208377 43.8772775 82.5007491 45.1856303 84.3520258 45.2039952 84.8840274 45.2092147 85.1384293 45.5816351 85.0511478 46.1218526 84.9625131 46.6731857 84.6773741 47.0516955 84.1344503 47.2837696 82.5797181 47.948385 80.4375997 46.9137656 80.1757551 45.1365284 79.9051148 43.3006202 79.947644 41.4186065 79.8530165 39.5566009 79.8828836 39.5553443 79.912654 39.5536045 79.9425211 39.5522513zM105.426887 39.4825614C105.426887 38.139122 105.38919 36.7939428 105.441772 35.4527265 105.469899 34.7343697 105.030399 33.6628272 106.429513 33.6848651 107.657157 33.7040999 108.134354 34.4053484 108.130391 35.5605961 108.122465 37.8742811 108.131744 40.1881595 108.131261 42.5017479 108.131261 43.7658317 107.877342 45.1675554 109.847507 45.2096013 110.400097 45.2210068 110.573403 45.654418 110.497044 46.1671849 110.413725 46.7288602 110.119501 47.0867821 109.559275 47.2950785 107.809778 47.9454853 105.9817 46.8460089 105.551478 44.84559 105.504503 44.6271446 105.448828 44.4048329 105.447958 44.1837777 105.438776 42.6165767 105.443125 41.0495691 105.443125 39.4824648 105.437422 39.4825614 105.432203 39.4825614 105.426887 39.4825614z"/>
    <path d="M52.3287958 37.7736609C52.2770842 38.6575916 52.7204511 39.8140959 50.9341281 39.3865807 49.67971 39.0864599 49.0121949 40.0105034 48.9490777 41.2193959 48.8670157 42.7816673 48.8973661 44.3492549 48.8393717 45.9127829 48.8196536 46.4457511 49.0986065 47.2093435 48.1486589 47.2687878 47.3354813 47.3202094 46.5136045 47.0768264 46.4355054 46.1983085 46.2187998 43.7601289 45.8113894 41.2513894 46.7386226 38.9044543 47.5925896 36.7435844 49.9912364 36.3691341 52.3722916 37.8216996L52.3287958 37.7736609zM85.7797503 41.3587757C85.7797503 40.5368989 85.7437938 39.712799 85.7911559 38.8934354 85.8297221 38.2246637 85.4731534 37.2623439 86.7187757 37.2800322 87.6692066 37.2931776 88.3231897 37.7483367 88.38853 38.7264116 88.4929199 40.2881998 88.5143778 41.8553041 88.56 43.4205719 88.5819412 44.1789448 88.5253 45.0073943 89.5621426 45.1143939 90.3147161 45.1921063 90.644124 45.4841079 90.4731373 46.2586226 90.3253484 46.9279742 89.9121385 47.3424406 89.2539025 47.379847 87.7210149 47.4670318 86.3319533 47.1301812 86.0139509 45.3676359 85.7775272 44.0566734 85.7906726 42.7003786 85.6928554 41.3645751 85.7218526 41.3627386 85.7507531 41.3610954 85.7797503 41.3587757zM207.999001 44.0118244C209.225679 43.9829239 209.853854 44.6693838 209.862167 45.6297704 209.869899 46.5928635 209.233121 47.2986549 208.140991 47.2815465 207.175771 47.2666613 206.581812 46.6899074 206.524881 45.77147 206.460797 44.7346275 207.060942 44.1246234 207.999001 44.0118244zM88.6756988 34.851905C88.5546839 35.7697624 88.0854128 36.4447201 87.1173903 36.4027708 86.2037857 36.3637213 85.5867257 35.7826178 85.6227789 34.7983568 85.6543858 33.9339509 86.2297865 33.3931534 87.0450906 33.3517841 87.9915586 33.3044221 88.5345791 33.8987676 88.6756988 34.851905z"/>
  </g>
</svg>
