<svg xmlns="http://www.w3.org/2000/svg" width="115" height="84" viewBox="0 0 115 84">
  <g fill="#FFFFFF" fill-rule="evenodd">
    <path d="M77.7570868,82.0477963 L86.0873873,82.0477963 L86.0873873,48.1005259 L77.7570868,48.1005259 L77.7570868,82.0477963 Z M105.978548,56.7268698 C107.062888,58.5876043 107.60525,61.2562187 107.60525,64.730793 C107.60525,67.2479299 107.243548,69.4187229 106.520718,71.2404841 C105.197546,74.5610851 102.859341,76.2211937 99.5059098,76.2211937 L92.9528297,76.2211937 L92.9528297,53.935 L99.5059098,53.935 C102.737237,53.935 104.893631,54.8657513 105.978548,56.7268698 Z M56.8539649,82.0477963 L56.8539649,57.9262104 L70.7163606,82.0477963 L56.8539649,82.0477963 Z M42.0577462,82.0477963 L50.2955092,82.0477963 L50.2955092,48.1005259 L42.0577462,48.1005259 L42.0577462,82.0477963 Z M30.0647245,82.0477963 L15.4583806,62.1023038 L29.3501503,48.1005259 L35.0389065,48.1005259 L35.0389065,82.0477963 L30.0647245,82.0477963 Z M7.08661102,82.0477963 L7.08661102,70.7011937 L10.4830467,67.2527295 L20.9505426,82.0477963 L7.08661102,82.0477963 Z M20.1916194,48.1005259 L7.08661102,62.0902087 L7.08661102,48.1005259 L20.1916194,48.1005259 Z M71.199591,48.1005259 L71.199591,71.7319699 L57.6831553,48.1005259 L71.199591,48.1005259 Z M114.967746,47.0367279 L0,47.0367279 L0,83.4007262 L114.967746,83.4007262 L114.967746,82.0477963 L100.723489,82.0477963 C105.855484,82.0477963 109.650868,79.9501503 112.110025,75.7245242 C113.922571,72.5913022 114.829708,68.7652003 114.829708,64.2490985 C114.829708,62.4674624 114.614107,60.5921369 114.184249,58.6261937 C113.753431,56.6602504 112.947087,54.8315776 111.763489,53.1409432 C110.289224,51.0515526 108.360142,49.6156845 105.978548,48.831803 C104.580309,48.371227 102.829199,48.1312437 100.723489,48.1005259 L114.967746,48.1005259 L114.967746,47.0367279 L114.967746,47.0367279 Z"/>
    <polygon points="86.202 47.022 114.918 47.022 114.918 0 86.202 0"/>
    <polygon points="57 47.022 84.921 47.022 84.921 0 57 0"/>
    <polygon points="27.838 47.022 55.931 47.022 55.931 0 27.838 0"/>
    <polygon points="0 47.022 26.686 47.022 26.686 0 0 0"/>
  </g>
</svg>
