<svg xmlns="http://www.w3.org/2000/svg" width="182" height="39" viewBox="0 0 182 39">
  <g fill="#FFFFFF">
    <path d="M137.06875 1.95902778C136.247222 1.26388889 135.109722.884722222 133.719444.884722222L132.645139.884722222C131.318056.884722222 130.180556 1.26388889 129.295833 1.95902778 128.411111 2.65416667 127.96875 3.98125 127.96875 5.87708333L127.96875 23.1923611C127.96875 25.0881944 128.411111 26.4152778 129.295833 27.1104167 130.180556 27.8055556 131.318056 28.1847222 132.708333 28.1847222L133.782639 28.1847222C135.109722 28.1847222 136.184028 27.8055556 137.06875 27.0472222 137.890278 26.2888889 138.332639 25.025 138.332639 23.1291667L138.332639 5.94027778C138.332639 3.98125 137.953472 2.65416667 137.06875 1.95902778zM166.833333 3.79166667C166.075 2.84375 165.127083 2.02222222 163.863194 1.45347222 162.6625.884722222 161.209028.56875 159.439583.56875 157.290972.56875 155.521528 1.01111111 154.13125 1.95902778 152.740972 2.90694444 151.603472 4.04444444 150.655556 5.49791667 150.402778 4.61319444 150.086806 3.85486111 149.644444 3.28611111 149.265278 2.71736111 148.759722 2.21180556 148.190972 1.83263889 147.622222 1.45347222 147.053472 1.20069444 146.484722 1.07430556 145.915972.947916667 145.284028.884722222 144.652083.884722222 143.577778.884722222 142.693056 1.01111111 141.871528 1.32708333 141.05 1.64305556 140.670833 1.89583333 140.670833 2.08541667L140.670833 23.1923611C140.670833 25.0881944 141.113194 26.4152778 141.997917 27.1104167 142.882639 27.8055556 144.020139 28.1847222 145.347222 28.1847222L146.421528 28.1847222C147.748611 28.1847222 148.822917 27.8055556 149.707639 27.1104167 150.592361 26.4152778 150.971528 25.0881944 150.971528 23.1923611L150.971528 11.1854167C151.350694 10.5534722 151.919444 10.0479167 152.614583 9.66875 153.309722 9.22638889 154.13125 9.03680556 155.079167 9.03680556 156.153472 9.03680556 156.975 9.41597222 157.606944 10.1111111 158.238889 10.80625 158.554861 11.7541667 158.554861 13.0180556L158.554861 23.2555556C158.554861 25.1513889 158.997222 26.4784722 159.881944 27.1736111 160.766667 27.86875 161.904167 28.2479167 163.294444 28.2479167L164.305556 28.2479167C165.695833 28.2479167 166.770139 27.86875 167.654861 27.1104167 168.476389 26.3520833 168.91875 25.0881944 168.91875 23.1923611L168.91875 11.1854167C168.91875 9.79513889 168.729167 8.46805556 168.413194 7.14097222 168.160417 5.94027778 167.591667 4.80277778 166.833333 3.79166667zM176.186111 16.9993056C172.963194 16.9993056 170.372222 19.5902778 170.372222 22.8131944 170.372222 26.0361111 172.963194 28.6270833 176.186111 28.6270833 179.409028 28.6270833 182 26.0361111 182 22.8131944 182 19.5902778 179.409028 16.9993056 176.186111 16.9993056zM57.44375 4.48680556C56.1798611 3.22291667 54.6631944 2.275 52.8305556 1.64305556 51.0611111.947916667 49.0388889.631944444 46.8270833.631944444 44.6152778.631944444 42.5930556.947916667 40.8236111 1.64305556 38.9909722 2.33819444 37.4743056 3.28611111 36.1472222 4.48680556 34.8833333 5.6875 33.8722222 7.20416667 33.1770833 8.91041667 32.4819444 10.6166667 32.1027778 12.5756944 32.1027778 14.6611111 32.1027778 16.8097222 32.41875 18.76875 33.1138889 20.475 33.8090278 22.18125 34.7569444 23.6979167 36.0208333 24.8986111 37.2847222 26.0993056 38.8013889 27.0472222 40.6340278 27.7423611 42.4034722 28.3743056 44.4256944 28.7534722 46.7006944 28.7534722 48.9125 28.7534722 50.9347222 28.4375 52.7673611 27.7423611 54.6 27.0472222 56.1166667 26.0993056 57.3805556 24.8986111 58.6444444 23.6979167 59.6555556 22.18125 60.3506944 20.475 61.0458333 18.76875 61.425 16.8097222 61.425 14.6611111 61.425 12.5125 61.1090278 10.6166667 60.4138889 8.91041667 59.71875 7.20416667 58.7076389 5.75069444 57.44375 4.48680556zM46.8270833 20.4118056C43.6041667 20.4118056 41.0131944 17.8208333 41.0131944 14.5979167 41.0131944 11.375 43.6041667 8.78402778 46.8270833 8.78402778 50.05 8.78402778 52.6409722 11.375 52.6409722 14.5979167 52.6409722 17.8208333 50.05 20.4118056 46.8270833 20.4118056zM27.0472222 4.36041667C25.9729167 3.15972222 24.6458333 2.21180556 23.1291667 1.57986111 21.6125.947916667 19.90625.631944444 18.0736111.631944444 16.1145833.631944444 14.4083333 1.07430556 13.0180556 2.02222222 11.5645833 2.97013889 10.5534722 4.23402778 9.92152778 5.75069444 9.73194444 4.80277778 9.35277778 3.98125 8.97361111 3.34930556 8.53125 2.71736111 8.02569444 2.21180556 7.52013889 1.83263889 6.95138889 1.45347222 6.38263889 1.20069444 5.81388889 1.07430556 5.18194444.947916667 4.61319444.884722222 3.98125.884722222 2.90694444.884722222 2.02222222 1.01111111 1.20069444 1.32708333.379166667 1.64305556 0 1.89583333 0 2.08541667L0 33.4298611C0 35.3256944.442361111 36.6527778 1.32708333 37.3479167 2.21180556 38.0430556 3.34930556 38.4222222 4.67638889 38.4222222L5.75069444 38.4222222C7.07777778 38.4222222 8.15208333 38.0430556 9.03680556 37.3479167 9.92152778 36.6527778 10.3006944 35.3256944 10.3006944 33.4298611L10.3006944 24.0770833C10.9326389 25.4673611 11.94375 26.5416667 13.2708333 27.4263889 14.5979167 28.3111111 16.2409722 28.6902778 18.0736111 28.6902778 19.90625 28.6902778 21.6125 28.3111111 23.1291667 27.6159722 24.6458333 26.9208333 25.9097222 25.9729167 27.0472222 24.7090278 28.1215278 23.4451389 28.9430556 21.9916667 29.5118056 20.2222222 30.0805556 18.5159722 30.3965278 16.6201389 30.3965278 14.5347222 30.3965278 12.3861111 30.0805556 10.4270833 29.5118056 8.72083333 29.00625 7.07777778 28.1847222 5.62430556 27.0472222 4.36041667zM15.7986111 20.4118056C12.5756944 20.4118056 9.98472222 17.8208333 9.98472222 14.5979167 9.98472222 11.375 12.5756944 8.78402778 15.7986111 8.78402778 19.0215278 8.78402778 21.6125 11.375 21.6125 14.5979167 21.6125 17.8208333 19.0215278 20.4118056 15.7986111 20.4118056zM90.43125 4.36041667C89.3569444 3.15972222 88.0298611 2.21180556 86.5131944 1.57986111 84.9965278.947916667 83.3534722.631944444 81.4576389.631944444 79.4986111.631944444 77.7923611 1.07430556 76.4020833 2.02222222 74.9486111 2.97013889 73.9375 4.23402778 73.3055556 5.75069444 73.1159722 4.80277778 72.7368056 3.98125 72.3576389 3.34930556 71.9152778 2.71736111 71.4097222 2.21180556 70.9041667 1.83263889 70.3354167 1.45347222 69.7666667 1.20069444 69.1979167 1.07430556 68.5659722.947916667 67.9972222.884722222 67.3652778.884722222 66.2909722.884722222 65.40625 1.01111111 64.5847222 1.32708333 63.7631944 1.64305556 63.3840278 1.89583333 63.3840278 2.08541667L63.3840278 33.4298611C63.3840278 35.3256944 63.8263889 36.6527778 64.7111111 37.3479167 65.5958333 38.0430556 66.7333333 38.4222222 68.1236111 38.4222222L69.1979167 38.4222222C70.525 38.4222222 71.6625 38.0430556 72.4840278 37.3479167 73.36875 36.6527778 73.8111111 35.3256944 73.8111111 33.4298611L73.8111111 24.0770833C74.4430556 25.4673611 75.4541667 26.5416667 76.8444444 27.4263889 78.1715278 28.3111111 79.8145833 28.6902778 81.6472222 28.6902778 83.4798611 28.6902778 85.1861111 28.3111111 86.7027778 27.6159722 88.2194444 26.9208333 89.4833333 25.9729167 90.6208333 24.7090278 91.6951389 23.4451389 92.5166667 21.9916667 93.0854167 20.2222222 93.6541667 18.5159722 93.9701389 16.6201389 93.9701389 14.5347222 93.9701389 12.3861111 93.6541667 10.4270833 93.0854167 8.72083333 92.3270833 7.07777778 91.5055556 5.62430556 90.43125 4.36041667zM79.1194444 20.4118056C75.8965278 20.4118056 73.3055556 17.8208333 73.3055556 14.5979167 73.3055556 11.375 75.8965278 8.78402778 79.1194444 8.78402778 82.2791667 8.78402778 84.9333333 11.375 84.9333333 14.5979167 84.9333333 17.8208333 82.3423611 20.4118056 79.1194444 20.4118056zM122.660417 4.36041667C121.586111 3.15972222 120.259028 2.21180556 118.742361 1.57986111 117.225694.947916667 115.582639.631944444 113.686806.631944444 111.727778.631944444 110.021528 1.07430556 108.63125 2.02222222 107.177778 2.97013889 106.166667 4.23402778 105.534722 5.75069444 105.345139 4.80277778 104.965972 3.98125 104.586806 3.34930556 104.144444 2.71736111 103.638889 2.21180556 103.133333 1.83263889 102.564583 1.45347222 101.995833 1.20069444 101.427083 1.07430556 100.795139.947916667 100.226389.884722222 99.5944444.884722222 98.5833333.884722222 97.6354167 1.01111111 96.8138889 1.32708333 95.9923611 1.64305556 95.6131944 1.89583333 95.6131944 2.08541667L95.6131944 33.4298611C95.6131944 35.3256944 96.0555556 36.6527778 96.9402778 37.3479167 97.825 38.0430556 98.9625 38.4222222 100.352778 38.4222222L101.427083 38.4222222C102.754167 38.4222222 103.828472 38.0430556 104.713194 37.3479167 105.597917 36.6527778 105.977083 35.3256944 105.977083 33.4298611L105.977083 24.0770833C106.609028 25.4673611 107.620139 26.5416667 108.947222 27.4263889 110.274306 28.3111111 111.917361 28.6902778 113.75 28.6902778 115.582639 28.6902778 117.288889 28.3111111 118.805556 27.6159722 120.322222 26.9208333 121.586111 25.9729167 122.723611 24.7090278 123.797917 23.4451389 124.619444 21.9916667 125.188194 20.2222222 125.756944 18.5159722 126.072917 16.6201389 126.072917 14.5347222 126.072917 12.3861111 125.756944 10.4270833 125.188194 8.72083333 124.619444 7.07777778 123.797917 5.62430556 122.660417 4.36041667zM111.411806 20.4118056C108.188889 20.4118056 105.597917 17.8208333 105.597917 14.5979167 105.597917 11.375 108.188889 8.78402778 111.411806 8.78402778 114.634722 8.78402778 117.225694 11.375 117.225694 14.5979167 117.225694 17.8208333 114.634722 20.4118056 111.411806 20.4118056zM173.342361 3.53888889C173.342361 1.89583333 174.60625.631944444 176.249306.631944444 177.955556.631944444 179.15625 1.83263889 179.15625 3.53888889 179.15625 5.18194444 177.892361 6.44583333 176.249306 6.44583333 174.479861 6.44583333 173.342361 5.24513889 173.342361 3.53888889zM178.777083 3.53888889C178.777083 2.02222222 177.702778.947916667 176.249306.947916667 174.732639.947916667 173.721528 2.02222222 173.721528 3.53888889 173.721528 5.05555556 174.795833 6.12986111 176.249306 6.12986111 177.702778 6.12986111 178.777083 5.05555556 178.777083 3.53888889zM176.375694 3.79166667L177.386806 4.86597222C177.386806 4.92916667 177.323611 5.05555556 177.197222 5.05555556 177.134028 5.05555556 177.007639 4.99236111 176.944444 4.92916667L175.933333 3.79166667 175.554167 3.79166667 175.554167 4.80277778C175.554167 4.92916667 175.490972 4.99236111 175.364583 4.99236111L175.301389 4.99236111C175.175 4.99236111 175.111806 4.92916667 175.111806 4.80277778L175.111806 2.21180556C175.111806 2.08541667 175.175 1.95902778 175.301389 1.95902778L176.186111 1.95902778C176.944444 1.95902778 177.323611 2.275 177.323611 2.84375 177.45 3.4125 177.070833 3.79166667 176.375694 3.79166667zM176.3125 3.47569444C176.818056 3.47569444 177.070833 3.28611111 177.070833 2.90694444 177.070833 2.52777778 176.818056 2.33819444 176.3125 2.33819444L175.617361 2.33819444 175.617361 3.47569444 176.3125 3.47569444z"/>
  </g>
</svg>
