<svg xmlns="http://www.w3.org/2000/svg" width="245" height="37" viewBox="0 0 245 37">
  <path fill="#FFFFFF" d="M34.8576841,35.5950571 L45.6446548,0.76429437 L55.2696102,0.76429437 L44.4819458,35.5950571 L34.8576841,35.5950571 Z M30.5551056,0.773805589 L21.8972245,15.5386141 C19.693211,19.4056039 18.4049349,21.3588006 17.7854247,23.8025045 L17.653614,23.8025045 C17.8069306,20.7045647 17.3657117,16.9014359 17.3240872,14.7519004 L16.3681129,0.773805589 L0.166497715,0.773805589 L0,1.71066064 C4.16244287,1.71066064 6.6307715,3.75829018 7.30994342,7.94662333 L10.4678501,35.5950571 L20.438982,35.5950571 L40.6004678,0.773805589 L30.5551056,0.773805589 Z M105.40346,35.5950571 L105.137757,30.4148397 L93.119397,30.4053285 L90.6614745,35.5943777 L80.2123554,35.5943777 L99.1591016,0.830193529 L111.984976,0.830193529 L115.193525,35.5943777 L105.40346,35.5943777 L105.40346,35.5950571 L105.40346,35.5950571 Z M104.299719,15.0494657 C104.192883,12.4753222 104.10339,8.98130807 104.282375,6.8671 L104.140158,6.8671 C103.554641,8.59610371 101.038445,13.7885498 99.9319285,16.3423121 L96.3508401,23.9771033 L104.789499,23.9771033 L104.299719,15.0494657 L104.299719,15.0494657 Z M65.3739403,36.5849032 C58.5787523,36.5849032 54.0694392,34.474092 50.8497896,32.5922294 L55.4347204,25.73532 C58.3248433,27.3182586 60.5940684,29.145092 65.8151592,29.145092 C67.4940112,29.145092 69.111814,28.7177665 70.0303264,27.1599647 C71.3692455,24.8942565 69.7216119,23.6754618 65.9615385,21.5911461 L64.1050889,20.4090375 C58.5315779,16.679281 56.1208298,13.1370313 58.7445563,6.95338034 C60.4234082,2.99807205 64.8515537,0 72.1566409,0 C77.1945843,0 81.9175695,2.13390988 84.669638,4.21890492 L79.3985978,10.2727957 C76.7131284,8.14567956 74.4869152,7.06955308 71.9395002,7.06955308 C69.908228,7.06955308 68.3653492,7.83656494 67.8325565,8.87124968 C66.8301015,10.8162939 68.1565333,12.1424296 71.0855056,13.9230656 L73.2929878,15.2981161 C80.0597325,19.4776174 81.6719853,23.8602512 79.9757899,27.9575484 C77.0593049,35.0101171 71.3484333,36.5849032 65.3739403,36.5849032 L65.3739403,36.5849032 Z M140.514359,32.8340862 L140.864004,36.1439903 C139.815069,36.6005288 138.037706,36.9714663 135.6776,36.9714663 C130.491197,36.9714663 126.994745,33.8898314 126.994745,28.8108406 C126.994745,24.5022585 128.976067,21.135287 131.948052,19.1949983 C133.987649,17.7968492 136.406028,17.1405751 139.174052,17.1405751 C141.301061,17.1405751 142.903601,17.6256472 143.457206,17.9680511 L142.320859,21.3064889 C141.738117,21.0211524 140.456085,20.6787485 138.766133,20.6787485 C137.076181,20.6787485 135.473641,21.1923543 134.27902,22.1624986 C132.618205,23.4750468 131.569269,25.6721384 131.569269,28.3543021 C131.569269,31.4074033 133.317495,33.4618266 136.78481,33.4618266 C138.154254,33.4618266 139.523698,33.2335573 140.514359,32.8340862 Z M147.128481,36.6861298 L142.932738,36.6861298 L146.83711,16.4272337 L151.032852,16.4272337 L149.459449,24.5022585 L149.517723,24.5307921 C150.683207,23.2467776 152.169199,22.4193015 154.063111,22.4193015 C156.27753,22.4193015 157.646974,23.788917 157.646974,26.1857442 C157.646974,26.8420183 157.530425,27.8977636 157.38474,28.696706 L155.840474,36.6861298 L151.644731,36.6861298 L153.101586,29.0391098 C153.218135,28.4969704 153.305546,27.8977636 153.305546,27.2985568 C153.305546,26.3854798 152.897627,25.7292057 151.848691,25.7292057 C150.391836,25.7292057 148.905844,27.4697587 148.352239,30.2945907 L147.128481,36.6861298 Z M170.962629,32.9196871 L171.254,35.8871874 C169.593185,36.7146634 167.524451,36.9714663 165.951047,36.9714663 C161.871853,36.9714663 159.773982,34.7173075 159.773982,31.0935331 C159.773982,26.8420183 162.920789,22.4193015 168.078056,22.4193015 C170.962629,22.4193015 173.031363,23.9886526 173.031363,26.5852154 C173.031363,30.1519224 169.505774,31.435937 163.794902,31.2932687 C163.794902,31.6927399 163.940587,32.3204803 164.231959,32.7199515 C164.785563,33.4332929 165.747088,33.8042305 166.970846,33.8042305 C168.515112,33.8042305 169.826282,33.4618266 170.962629,32.9196871 Z M169.097854,26.613749 C169.097854,25.9004076 168.515112,25.4153355 167.553588,25.4153355 C165.601402,25.4153355 164.494192,26.9846866 164.202821,28.2972348 C167.466177,28.3257684 169.097854,27.8692299 169.097854,26.613749 Z M184.423969,33.1194227 C183.695541,33.4047593 182.821428,33.6900958 181.59767,33.6900958 C180.024267,33.6900958 178.800509,32.7199515 178.800509,30.8081965 C178.800509,28.1831001 180.636146,25.700672 183.637267,25.700672 C184.482243,25.700672 185.064985,25.8433403 185.560316,26.0430759 L186.580114,22.9043737 C185.968235,22.6475708 184.9193,22.4193015 183.695541,22.4193015 C178.276041,22.4193015 174.400806,26.2998788 174.400806,31.264735 C174.400806,34.8885094 176.87746,36.9714663 180.403049,36.9714663 C182.093001,36.9714663 183.549856,36.6861298 184.453106,36.2581249 L184.423969,33.1194227 Z M190.775857,36.6861298 L191.64997,32.1778121 L193.223373,30.7225956 L195.729164,36.6861298 L200.3911,36.6861298 L196.428454,28.4684367 L202.488971,22.7331718 L197.331704,22.7331718 L193.689567,26.9561529 C193.281647,27.4697587 192.844591,28.0118982 192.407534,28.5540377 L192.34926,28.5540377 L194.680228,16.4272337 L190.513623,16.4272337 L186.609251,36.6861298 L190.775857,36.6861298 Z M211.055278,22.4193015 C214.872238,22.4193015 217.086658,24.9873306 217.086658,28.1545665 C217.086658,33.262091 213.531932,37 208.578625,37 C204.965624,37 202.547245,34.6887738 202.547245,31.2362014 C202.547245,26.3854798 205.985423,22.4193015 211.055278,22.4193015 Z M210.501673,25.5294701 C208.083294,25.5294701 206.859536,28.9820425 206.888673,31.1506004 C206.888673,32.7770188 207.704512,33.8612978 209.161367,33.8612978 C211.463198,33.8612978 212.74523,30.5799273 212.74523,28.1831001 C212.74523,26.8990856 212.191625,25.5294701 210.501673,25.5294701 Z M229.615611,22.7331718 L228.362716,29.1817781 C227.809111,31.9780765 226.352256,33.6615622 224.924538,33.6615622 C223.846465,33.6615622 223.49682,32.9482208 223.49682,32.0351438 C223.49682,31.521538 223.584231,30.8367302 223.70078,30.2089898 L225.128498,22.7331718 L220.932755,22.7331718 L219.446763,30.52286 C219.242804,31.4930043 219.155392,32.3204803 219.155392,33.0908891 C219.155392,35.7445191 220.524836,37 222.79753,37 C224.516619,37 226.264845,36.2295913 227.7217,34.4034373 L227.779974,34.4034373 L227.51774,36.6861298 L231.218152,36.6861298 C231.422111,35.4306489 231.626071,33.9183651 231.975716,32.1492784 L233.811354,22.7331718 L229.615611,22.7331718 Z M238.444152,19.7942051 L237.86141,22.7331718 L236.025773,22.7331718 L235.443031,25.8433403 L237.249531,25.8433403 L236.142322,31.4074033 C235.938362,32.4631486 235.850951,33.2335573 235.850951,34.0039661 C235.850951,35.7445191 237.045572,37 239.551362,37 C240.454612,37 241.503548,36.8858654 242.028016,36.6861298 L242.523346,33.4618266 C242.144564,33.5188939 241.736645,33.5188939 241.357862,33.5188939 C240.454612,33.5188939 240.163241,33.0338217 240.163241,32.349014 C240.163241,31.8639418 240.27979,31.1506004 240.396338,30.5799273 L241.357862,25.8433403 L244.388121,25.8433403 L245,22.7331718 L241.969742,22.7331718 L242.727306,18.8240608 L238.444152,19.7942051 Z"/>
</svg>
